<?xml version="1.0" encoding="UTF-8"?>
<svg width="310px" height="160px" viewBox="0 0 310 160" version="1.1" xmlns="http://www.w3.org/2000/svg" xmlns:xlink="http://www.w3.org/1999/xlink">
    <!-- Generator: Sketch 45.2 (43514) - http://www.bohemiancoding.com/sketch -->
    <title>about_ai</title>
    <desc>Created with Sketch.</desc>
    <defs>
        <linearGradient x1="1.98301977%" y1="1.98301977%" x2="95.1223307%" y2="95.1223307%" id="linearGradient-1">
            <stop stop-color="#5275FF" offset="0%"></stop>
            <stop stop-color="#6571FF" offset="14.4351881%"></stop>
            <stop stop-color="#73A3FF" offset="100%"></stop>
        </linearGradient>
        <filter x="-10.9%" y="-375.0%" width="121.9%" height="850.0%" filterUnits="objectBoundingBox" id="filter-2">
            <feGaussianBlur stdDeviation="10" in="SourceGraphic"></feGaussianBlur>
        </filter>
    </defs>
    <g id="Page-1" stroke="none" stroke-width="1" fill="none" fill-rule="evenodd">
        <g id="about_ai" transform="translate(8.000000, 0.000000)">
            <g id="flaticon1499160603-svg" transform="translate(83.000000, 0.000000)" fill-rule="nonzero">
                <path d="M108.71575,31.52325 L108.71575,19.28425 L96.47675,19.28425 L96.47675,0 L88.129,0 L88.129,19.28425 L77.60825,19.28425 L77.60825,0 L69.2605,0 L69.2605,19.28425 L58.73975,19.28425 L58.73975,0 L50.392,0 L50.392,19.28425 L39.87125,19.28425 L39.87125,0 L31.5235,0 L31.5235,19.28425 L19.28425,19.28425 L19.28425,31.52325 L0,31.52325 L0,39.871 L19.28425,39.871 L19.28425,50.39175 L0,50.39175 L0,58.7395 L19.28425,58.7395 L19.28425,69.26025 L0,69.26025 L0,77.608 L19.28425,77.608 L19.28425,88.12875 L0,88.12875 L0,96.4765 L19.28425,96.4765 L19.28425,108.7155 L31.52325,108.7155 L31.52325,128 L39.871,128 L39.871,108.71575 L50.39175,108.71575 L50.39175,128 L58.7395,128 L58.7395,108.71575 L69.26025,108.71575 L69.26025,128 L77.608,128 L77.608,108.71575 L88.12875,108.71575 L88.12875,128 L96.4765,128 L96.4765,108.71575 L108.7155,108.71575 L108.7155,96.47675 L128,96.47675 L128,88.129 L108.71575,88.129 L108.71575,77.60825 L128,77.60825 L128,69.2605 L108.71575,69.2605 L108.71575,58.73975 L128,58.73975 L128,50.392 L108.71575,50.392 L108.71575,39.87125 L128,39.87125 L128,31.52375 L108.71575,31.52375 L108.71575,31.52325 Z M93.94325,70.61725 C93.94325,76.3985 90.3805,81.36075 85.33625,83.4305 C84.99125,90.1625 79.406,95.53325 72.58975,95.53325 C69.2845,95.53325 66.269,94.27025 63.99975,92.202 C61.7305,94.27025 58.715,95.53325 55.40975,95.53325 C48.5935,95.53325 43.00825,90.1625 42.66325,83.4305 C37.619,81.3605 34.05625,76.39825 34.05625,70.61725 C34.05625,68.27575 34.644,66.01025 35.74175,63.99775 C34.66775,62.031 34.05625,59.777 34.05625,57.383 C34.05625,51.65475 37.60475,46.65725 42.66275,44.57325 C43.006,37.8395 48.59225,32.46675 55.4095,32.46675 C58.71475,32.46675 61.73025,33.72975 63.9995,35.798 C66.26875,33.72975 69.28425,32.46675 72.5895,32.46675 C79.407,32.46675 84.99325,37.8395 85.33625,44.57325 C90.39475,46.65725 93.94275,51.65475 93.94275,57.383 C93.94275,59.77725 93.3315,62.03125 92.25725,63.99775 C93.35575,66.0105 93.94325,68.276 93.94325,70.61725 Z" id="Shape" fill="url(#linearGradient-1)"></path>
                <path d="M55.41,40.8145 C52.97525,40.8145 50.994,42.7955 50.994,45.2305 C50.994,47.06225 52.1455,48.725 53.85925,49.36775 L50.9275,57.18375 C48.52425,56.28225 46.5055,54.686 45.06175,52.6785 C43.46675,53.64825 42.404,55.40625 42.404,57.38275 C42.404,60.4145 44.8705,62.881 47.902,62.881 L47.902,71.22875 C45.95875,71.22875 44.1085,70.8245 42.42825,70.0985 C42.412,70.27025 42.40375,70.44325 42.40375,70.6175 C42.40375,73.64925 44.87,76.1155 47.90175,76.1155 C49.47425,76.1155 50.922,75.473 51.97875,74.30625 L58.166,79.9105 C56.295,81.97625 53.8515,83.4085 51.1875,84.0615 C51.74125,85.86825 53.42425,87.18575 55.40975,87.18575 C57.84475,87.18575 59.82575,85.20475 59.82575,82.76975 L59.82575,45.2305 C59.826,42.7955 57.84525,40.8145 55.41,40.8145 Z" id="Shape" fill="#F75053"></path>
                <path d="M80.09775,71.22875 L80.09775,62.881 C83.1295,62.881 85.596,60.4145 85.596,57.38275 C85.596,55.406 84.53325,53.648 82.93825,52.6785 C81.49475,54.68625 79.47575,56.28225 77.0725,57.18375 L74.14075,49.36775 C75.8545,48.725 77.006,47.06225 77.006,45.2305 C77.006,42.7955 75.025,40.8145 72.59,40.8145 C70.155,40.8145 68.174,42.7955 68.174,45.2305 L68.174,82.7695 C68.174,85.2045 70.155,87.1855 72.59,87.1855 C74.57575,87.1855 76.25825,85.86775 76.81225,84.06125 C74.14825,83.40825 71.70475,81.976 69.83375,79.91025 L76.021,74.306 C77.0775,75.47275 78.5255,76.11525 80.09775,76.11525 C83.1295,76.11525 85.596,73.64875 85.596,70.61725 C85.596,70.443 85.58775,70.27 85.5715,70.09825 C83.89125,70.82425 82.041,71.22875 80.09775,71.22875 Z" id="Shape" fill="#2F94FD"></path>
            </g>
            <g id="Group-2" transform="translate(0.000000, 113.000000)">
                <ellipse id="Oval" fill="#000000" opacity="0.539999962" filter="url(#filter-2)" cx="147" cy="7" rx="137" ry="4"></ellipse>
                <rect id="Rectangle" fill="#FFFFFF" x="0" y="0" width="294" height="47"></rect>
            </g>
        </g>
    </g>
</svg>