<?xml version="1.0" encoding="UTF-8"?>
<svg width="310px" height="160px" viewBox="0 0 310 160" version="1.1" xmlns="http://www.w3.org/2000/svg" xmlns:xlink="http://www.w3.org/1999/xlink">
    <!-- Generator: Sketch 45.2 (43514) - http://www.bohemiancoding.com/sketch -->
    <title>about_professionals</title>
    <desc>Created with Sketch.</desc>
    <defs>
        <filter x="-10.9%" y="-375.0%" width="121.9%" height="850.0%" filterUnits="objectBoundingBox" id="filter-1">
            <feGaussianBlur stdDeviation="10" in="SourceGraphic"></feGaussianBlur>
        </filter>
    </defs>
    <g id="Page-1" stroke="none" stroke-width="1" fill="none" fill-rule="evenodd">
        <g id="about_professionals" transform="translate(8.000000, 0.000000)">
            <g id="flaticon1499160618-svg" transform="translate(83.000000, 0.000000)" fill-rule="nonzero">
                <path d="M104.532221,80.7664685 L81.2649902,79.5497477 L68.5075179,100.993622 C67.2250163,103.154378 65.5972899,104.343333 63.9241173,104.343333 C62.2305147,104.343333 60.6015375,103.124541 59.3386319,100.912396 L47.0994137,79.4900721 L23.1392313,80.7643964 C16.7325603,81.0992432 9.15679479,83.6462342 5.8934202,86.567027 C2.58835179,89.5238739 0,96.8797297 0,103.315586 L0,110.456775 C0,117.11973 5.45563518,122.542757 12.1591661,122.542757 L115.512704,122.542757 C122.213733,122.542757 127.67187,117.11973 127.67187,110.456775 L127.67187,103.315586 C127.67187,96.8801441 125.083518,89.5242883 121.778033,86.567027 C118.513824,83.6524505 110.940143,81.0988288 104.532221,80.7664685 Z" id="Shape" fill="#D5D5D5"></path>
                <path d="M61.6101107,97.7558018 C62.5849121,99.9787207 64.3068664,100.047514 65.4509446,97.9016757 L69.3480651,90.6141982 L64.848886,85.8355856 L68.257772,82.3163784 L63.8365603,79.7175856 L59.5079088,82.1895676 L62.8088078,85.7647207 L58.3117134,90.2453694 L61.6101107,97.7558018 Z" id="Shape" fill="#6F94FF"></path>
                <path d="M63.8428143,24.0057838 C67.2646254,24.0057838 70.447114,25.0422342 73.0938371,26.8134414 L78.8500847,22.9092432 C74.7974463,19.4878378 69.564456,17.4136937 63.845316,17.4136937 C51.0407296,17.4136937 40.6214463,27.7694955 40.6214463,40.496991 C40.6214463,53.2240721 51.038228,63.5802883 63.845316,63.5802883 C76.6524039,63.5802883 87.0691857,53.2240721 87.0691857,40.496991 C87.0691857,37.4228649 86.4496156,34.4917117 85.3438958,31.8038198 L79.6981368,35.6363243 C80.1755309,37.1717297 80.4348664,38.8049369 80.4348664,40.496991 C80.4348664,49.5921441 72.9908534,56.9881982 63.8432313,56.9881982 C54.6947752,56.9881982 47.2515961,49.5921441 47.2515961,40.496991 C47.2511792,31.4014234 54.6939414,24.0057838 63.8428143,24.0057838 Z" id="Shape" fill="#F95154"></path>
                <path d="M28.470202,40.496991 C28.470202,59.8828829 44.3397003,75.6550811 63.8428143,75.6550811 C83.3442606,75.6550811 99.2150098,59.8828829 99.2150098,40.496991 C99.2150098,34.8845766 97.8507883,29.5933333 95.4867492,24.8822703 L89.9552313,28.6376937 C91.6263192,32.2547027 92.5827752,36.2629189 92.5827752,40.496991 C92.5827752,56.2476396 79.6914658,69.062991 63.8428143,69.062991 C47.9937459,69.062991 35.1024365,56.2480541 35.1024365,40.496991 C35.1024365,24.7459279 47.9937459,11.9305766 63.8428143,11.9305766 C71.4485993,11.9305766 78.3530945,14.9015135 83.4997785,19.7161802 L89.0913355,15.9189009 C82.6663192,9.40181982 73.728,5.33848649 63.8423974,5.33848649 C44.3397003,5.33848649 28.470202,21.1106847 28.470202,40.496991 Z" id="Shape" fill="#6990ED"></path>
                <path d="M102.775244,5.99284685 L100.283622,11.4167027 C99.5710749,11.3707027 98.8414332,11.5397838 98.2047687,11.9703604 L64.2159739,35.0428829 C64.0896417,35.0341802 63.9708143,35.0051712 63.8423974,35.0051712 C60.7916612,35.0051712 58.3175505,37.4643063 58.3175505,40.4965766 C58.3175505,43.5284324 60.7916612,45.987982 63.8423974,45.987982 C66.8927166,45.987982 69.3668274,43.5284324 69.3668274,40.4965766 C69.3668274,40.1865946 69.3234658,39.8857297 69.2738502,39.589009 L101.945537,17.4112072 C102.580117,16.9798018 103.003309,16.3652252 103.219283,15.6901441 L109.208182,15.3565405 L117.723309,9.57753153 L109.797316,8.09144144 L111.289121,0.211765766 L102.775244,5.99284685 Z" id="Shape" fill="#19B84A"></path>
            </g>
            <g id="Group-2" transform="translate(0.000000, 113.000000)">
                <ellipse id="Oval" fill="#000000" opacity="0.539999962" filter="url(#filter-1)" cx="147" cy="7" rx="137" ry="4"></ellipse>
                <rect id="Rectangle" fill="#FFFFFF" x="0" y="0" width="294" height="47"></rect>
            </g>
        </g>
    </g>
</svg>