<?xml version="1.0" encoding="UTF-8"?>
<svg width="310px" height="144px" viewBox="0 0 310 144" version="1.1" xmlns="http://www.w3.org/2000/svg" xmlns:xlink="http://www.w3.org/1999/xlink">
    <!-- Generator: Sketch 45.2 (43514) - http://www.bohemiancoding.com/sketch -->
    <title>about_syndication</title>
    <desc>Created with Sketch.</desc>
    <defs>
        <linearGradient x1="3.061617e-15%" y1="50%" x2="97.5904815%" y2="50%" id="linearGradient-1">
            <stop stop-color="#FF4F4F" offset="0%"></stop>
            <stop stop-color="#2D95FF" offset="100%"></stop>
        </linearGradient>
        <filter x="-10.9%" y="-375.0%" width="121.9%" height="850.0%" filterUnits="objectBoundingBox" id="filter-2">
            <feGaussianBlur stdDeviation="10" in="SourceGraphic"></feGaussianBlur>
        </filter>
    </defs>
    <g id="Page-1" stroke="none" stroke-width="1" fill="none" fill-rule="evenodd">
        <g id="about_syndication" transform="translate(8.000000, 0.000000)">
            <g id="flaticon1499160580-svg" transform="translate(83.000000, 0.000000)" fill-rule="nonzero">
                <path d="M18.3610871,27.5949268 C19.8266202,28.7130314 21.9201115,28.4316098 23.038662,26.9669686 C32.8821742,14.0701882 47.8117909,6.67428571 64,6.67428571 C80.1882091,6.67428571 95.1178258,14.0706341 104.961338,26.9669686 C105.618286,27.8272892 106.611512,28.2790801 107.61678,28.2790801 C108.322341,28.2790801 109.034592,28.0560836 109.638913,27.5949268 C111.103554,26.4763763 111.38453,24.382439 110.266871,22.9173519 C99.1496028,8.35300348 82.2861603,0 64,0 C45.7138397,0 28.8503972,8.35300348 17.7335749,22.9173519 C16.6154704,24.382439 16.896446,26.4763763 18.3610871,27.5949268 Z" id="Shape" fill="url(#linearGradient-1)"></path>
                <path d="M99.4729477,45.3958467 C99.4729477,51.1424669 104.148739,55.8182578 109.895359,55.8182578 C115.641979,55.8182578 120.31777,51.1424669 120.31777,45.3958467 C120.31777,39.6492265 115.641979,34.9734355 109.895359,34.9734355 C104.148739,34.9734355 99.4729477,39.6487805 99.4729477,45.3958467 L99.4729477,45.3958467 Z" id="Shape" fill="#2F94FD"></path>
                <path d="M120.561728,59.2769338 C120.537645,59.2689059 117.911638,58.4629965 117.911638,58.4629965 C116.96078,58.1726551 115.927861,58.3514983 115.131763,58.9473449 L109.895359,62.8680697 L104.658955,58.9473449 C103.862411,58.3510523 102.829045,58.1722091 101.87908,58.4629965 C101.87908,58.4629965 99.2530732,59.2689059 99.2289895,59.2769338 C95.0036516,60.6858258 92.1649059,64.6243902 92.1649059,69.0780767 L92.1649059,84.8345645 C92.1649059,85.442453 92.3424111,86.0369617 92.6769059,86.5445017 L97.9610314,94.5862021 L97.9610314,115.704864 C97.9610314,117.425059 99.3552056,118.819233 101.075401,118.819233 L118.715763,118.819233 C120.435958,118.819233 121.830132,117.425059 121.830132,115.704864 L121.830132,94.5862021 L127.114258,86.5445017 C127.448307,86.0365157 127.626258,85.442007 127.626258,84.8345645 L127.626258,69.0780767 C127.626258,64.6243902 124.787066,60.6858258 120.561728,59.2769338 L120.561728,59.2769338 Z" id="Shape" fill="#2F94FD"></path>
                <path d="M18.1046411,55.8182578 C23.8512613,55.8182578 28.5270523,51.1424669 28.5270523,45.3958467 C28.5270523,39.6492265 23.8512613,34.9734355 18.1046411,34.9734355 C12.3580209,34.9734355 7.68178397,39.6487805 7.68178397,45.3958467 C7.68178397,51.1429129 12.3575749,55.8182578 18.1046411,55.8182578 Z" id="Shape" fill="#F95154"></path>
                <path d="M28.7710105,59.2769338 C28.7469268,59.2689059 26.1209199,58.4629965 26.1209199,58.4629965 C25.1696167,58.1726551 24.1375889,58.3514983 23.3410453,58.9473449 L18.1046411,62.8680697 L12.8682369,58.9473449 C12.0721394,58.3510523 11.0383275,58.1722091 10.0883624,58.4629965 C10.0883624,58.4629965 7.4623554,59.2689059 7.43827178,59.2769338 C3.2129338,60.6858258 0.374188153,64.6243902 0.374188153,69.0780767 L0.374188153,84.8345645 C0.374188153,85.442453 0.55169338,86.0369617 0.886188153,86.5445017 L6.17031359,94.5862021 L6.17031359,115.704864 C6.17031359,117.425059 7.5644878,118.819233 9.28468293,118.819233 L26.9245993,118.819233 C28.6447944,118.819233 30.0389686,117.425059 30.0389686,115.704864 L30.0389686,94.5862021 L35.3230941,86.5445017 C35.6571429,86.0365157 35.8350941,85.442007 35.8350941,84.8345645 L35.8350941,69.0780767 C35.8350941,64.6243902 32.9959024,60.6858258 28.7710105,59.2769338 Z" id="Shape" fill="#F95154"></path>
                <path d="M77.443122,30.7070662 C77.443122,23.294662 71.4124042,17.2639443 64,17.2639443 C56.5875958,17.2639443 50.556878,23.294662 50.556878,30.7070662 C50.556878,38.1199164 56.5875958,44.1501882 64,44.1501882 C71.4124042,44.1501882 77.443122,38.1199164 77.443122,30.7070662 Z" id="Shape" fill="#D1D1D1"></path>
                <path d="M78.7654913,50.6652544 L78.7431916,50.6581185 L74.9063136,49.4806969 C74.301101,49.2947178 73.6544111,49.6149408 73.4367666,50.2121254 L65.3687526,72.3489895 C64.9031359,73.6258676 63.0973101,73.6258676 62.6316934,72.3489895 L54.5636794,50.2121254 C54.3879582,49.730007 53.9330453,49.4276237 53.4451289,49.4276237 C53.3296167,49.4276237 49.2617143,50.6563345 49.2617143,50.6563345 C44.3602509,52.289561 41.08577,56.833338 41.08577,61.9711777 L41.08577,85.3884878 C41.08577,85.6208502 41.154007,85.8483066 41.281561,86.0427596 L49.7001254,98.8534634 L49.7001254,131.268237 C49.7001254,131.926523 50.2335331,132.45993 50.8918188,132.45993 L77.1086272,132.45993 C77.7669129,132.45993 78.3003206,131.926523 78.3003206,131.268237 L78.3003206,98.8534634 L86.718885,86.0427596 C86.846439,85.8483066 86.914676,85.6208502 86.914676,85.3884878 L86.914676,61.9096307 C86.91423,56.7940906 83.6268153,52.2578955 78.7654913,50.6652544 L78.7654913,50.6652544 Z" id="Shape" fill="#DDDDDD"></path>
                <path d="M67.1522787,50.1991916 C66.819122,49.8361533 66.3316516,49.6532962 65.8383833,49.6532962 L62.1611707,49.6532962 C61.6683484,49.6532962 61.180878,49.8361533 60.8472753,50.1991916 C60.3312613,50.7615889 60.2563345,51.5737422 60.6224948,52.2083902 L62.5879861,55.1715679 L61.6679024,62.9340767 L63.4799721,67.7543693 C63.6565854,68.2391638 64.3420767,68.2391638 64.5191359,67.7543693 L66.3312056,62.9340767 L65.411122,55.1715679 L67.3766132,52.2083902 C67.7432195,51.5737422 67.6682927,50.7615889 67.1522787,50.1991916 L67.1522787,50.1991916 Z" id="Shape" fill="#19B84A"></path>
            </g>
            <g id="Group-2" transform="translate(0.000000, 97.000000)">
                <ellipse id="Oval" fill="#000000" opacity="0.539999962" filter="url(#filter-2)" cx="147" cy="7" rx="137" ry="4"></ellipse>
                <rect id="Rectangle" fill="#FFFFFF" x="0" y="0" width="294" height="47"></rect>
            </g>
        </g>
    </g>
</svg>