<?xml version="1.0" encoding="UTF-8"?>
<svg width="15px" height="16px" viewBox="0 0 15 16" version="1.1" xmlns="http://www.w3.org/2000/svg" xmlns:xlink="http://www.w3.org/1999/xlink">
    <!-- Generator: Sketch 45.2 (43514) - http://www.bohemiancoding.com/sketch -->
    <title>icon_clock</title>
    <desc>Created with Sketch.</desc>
    <defs></defs>
    <g id="Page-1" stroke="none" stroke-width="1" fill="none" fill-rule="evenodd">
        <g id="bg_pre_game_item" transform="translate(-371.000000, -16.000000)" fill-rule="nonzero" fill="#FFFFFF">
            <g id="icon_clock" transform="translate(371.000000, 16.000000)">
                <path d="M0.041025641,8.77948718 C0.041025641,12.7179487 3.24102564,15.9179487 7.17948718,15.9179487 C11.1179487,15.9179487 14.3179487,12.7179487 14.3179487,8.77948718 C14.3179487,6.82393162 13.5247863,5.03247863 12.2393162,3.74700855 L12.8,3.18632479 L13.0598291,3.44615385 C13.1692308,3.55555556 13.3059829,3.61025641 13.4564103,3.61025641 C13.6068376,3.61025641 13.7435897,3.55555556 13.8529915,3.44615385 C14.0717949,3.22735043 14.0717949,2.87179487 13.8529915,2.65299145 L12.5538462,1.35384615 C12.3350427,1.13504274 11.9794872,1.13504274 11.7606838,1.35384615 C11.5418803,1.57264957 11.5418803,1.92820513 11.7606838,2.14700855 L12.0205128,2.40683761 L11.4051282,3.02222222 C10.365812,2.25641026 9.12136752,1.77777778 7.75384615,1.66837607 L7.75384615,1.18974359 L8.9982906,1.18974359 C9.31282051,1.18974359 9.55897436,0.943589744 9.55897436,0.629059829 C9.55897436,0.314529915 9.31282051,0.0683760684 8.9982906,0.0683760684 L5.30598291,0.0683760684 C4.99145299,0.0683760684 4.74529915,0.314529915 4.74529915,0.629059829 C4.74529915,0.943589744 4.99145299,1.18974359 5.30598291,1.18974359 L6.63247863,1.18974359 L6.63247863,1.66837607 C2.94017094,1.95555556 0.041025641,5.03247863 0.041025641,8.77948718 Z M7.17948718,2.76239316 C10.5025641,2.76239316 13.2102564,5.47008547 13.2102564,8.79316239 C13.2102564,12.1162393 10.5025641,14.8239316 7.17948718,14.8239316 C3.85641026,14.8239316 1.14871795,12.1162393 1.14871795,8.79316239 C1.14871795,5.45641026 3.85641026,2.76239316 7.17948718,2.76239316 Z" id="Shape"></path>
                <path d="M7.17948718,9.24444444 L9.57264957,9.24444444 C9.88717949,9.24444444 10.1333333,8.9982906 10.1333333,8.68376068 C10.1333333,8.36923077 9.88717949,8.12307692 9.57264957,8.12307692 L7.74017094,8.12307692 L7.74017094,5.23760684 C7.74017094,4.92307692 7.49401709,4.67692308 7.17948718,4.67692308 C6.86495726,4.67692308 6.61880342,4.92307692 6.61880342,5.23760684 L6.61880342,8.6974359 C6.61880342,8.9982906 6.86495726,9.24444444 7.17948718,9.24444444 L7.17948718,9.24444444 Z" id="Shape"></path>
            </g>
        </g>
    </g>
</svg>