<?xml version="1.0" encoding="UTF-8"?>
<svg width="20px" height="19px" viewBox="0 0 20 19" version="1.1" xmlns="http://www.w3.org/2000/svg" xmlns:xlink="http://www.w3.org/1999/xlink">
    <!-- Generator: Sketch 45.2 (43514) - http://www.bohemiancoding.com/sketch -->
    <title>icon_tick</title>
    <desc>Created with Sketch.</desc>
    <defs>
        <linearGradient x1="50%" y1="0%" x2="50%" y2="97.3333865%" id="linearGradient-1">
            <stop stop-color="#FFD31E" offset="0%"></stop>
            <stop stop-color="#FFD034" offset="97.9691486%"></stop>
        </linearGradient>
        <path d="M8.36530198,2.0285526 C8.27463531,1.95921926 8.28974642,1.8765526 8.40085753,1.84544149 L9.59730198,1.5165526 C9.70930198,1.48544149 9.83196864,1.36988593 9.86930198,1.26233037 L10.2746353,0.088108152 C10.3119686,-0.0203362924 10.3955242,-0.0301140702 10.4586353,0.0667748187 L11.1430798,1.10144149 C11.2070798,1.19744149 11.3537464,1.27833037 11.469302,1.28188593 L12.7101909,1.30588593 C12.8257464,1.30588593 12.8604131,1.38233037 12.7884131,1.47299704 L12.0159686,2.44366371 C11.9439686,2.53433037 11.9119686,2.69877482 11.9457464,2.80899704 L12.3057464,3.99566371 C12.3386353,4.10677482 12.2790798,4.16277482 12.1706353,4.12366371 L11.0070798,3.68633037 C10.9004131,3.64633037 10.733302,3.66677482 10.6390798,3.7325526 L9.62041309,4.44366371 C9.52619087,4.5085526 9.45241309,4.4685526 9.45863531,4.35210815 L9.51374642,3.11388593 C9.52085753,2.99833037 9.44796864,2.84721926 9.3555242,2.77699704 L8.36530198,2.0285526 Z" id="path-2"></path>
        <filter x="-5.5%" y="-5.6%" width="111.1%" height="111.2%" filterUnits="objectBoundingBox" id="filter-3">
            <feOffset dx="0" dy="-0.5" in="SourceAlpha" result="shadowOffsetInner1"></feOffset>
            <feComposite in="shadowOffsetInner1" in2="SourceAlpha" operator="arithmetic" k2="-1" k3="1" result="shadowInnerInner1"></feComposite>
            <feColorMatrix values="0 0 0 0 1   0 0 0 0 1   0 0 0 0 1  0 0 0 0.5 0" type="matrix" in="shadowInnerInner1"></feColorMatrix>
        </filter>
        <path d="M9.32441309,5.87121926 C9.48263531,5.74233037 9.45241309,5.59921926 9.25241309,5.55299704 L7.12974642,5.04188593 C6.93330198,4.99210815 6.71285753,4.79744149 6.63907976,4.60988593 L5.85596864,2.57166371 C5.78307976,2.38144149 5.6355242,2.36721926 5.5315242,2.53966371 L4.38841309,4.40277482 C4.28263531,4.57433037 4.02930198,4.72633037 3.82663531,4.73699704 L1.64707976,4.84899704 C1.4435242,4.86144149 1.38574642,4.9965526 1.51730198,5.15121926 L2.93507976,6.81166371 C3.06574642,6.96721926 3.1315242,7.25344149 3.07819087,7.45077482 L2.51463531,9.55921926 C2.4595242,9.7565526 2.5715242,9.8525526 2.75730198,9.77610815 L4.77685753,8.94144149 C4.96441309,8.86410815 5.25863531,8.89077482 5.42574642,9.00010815 L7.25863531,10.1885526 C7.4275242,10.2996637 7.55463531,10.224997 7.53863531,10.0214415 L7.36974642,7.8445526 C7.35463531,7.6445526 7.46930198,7.3725526 7.63019087,7.24366371 L9.32441309,5.87121926 Z" id="path-4"></path>
        <filter x="-3.1%" y="-3.2%" width="106.3%" height="106.4%" filterUnits="objectBoundingBox" id="filter-5">
            <feOffset dx="0" dy="-0.5" in="SourceAlpha" result="shadowOffsetInner1"></feOffset>
            <feComposite in="shadowOffsetInner1" in2="SourceAlpha" operator="arithmetic" k2="-1" k3="1" result="shadowInnerInner1"></feComposite>
            <feColorMatrix values="0 0 0 0 1   0 0 0 0 1   0 0 0 0 1  0 0 0 0.5 0" type="matrix" in="shadowInnerInner1"></feColorMatrix>
        </filter>
        <path d="M1.56707976,3.09877482 L2.23996864,3.35121926 C2.30219087,3.37433037 2.33774642,3.34144149 2.31819087,3.27744149 L2.11019087,2.58944149 C2.0915242,2.52544149 2.10841309,2.43033037 2.15019087,2.37788593 L2.59907976,1.81433037 C2.64085753,1.76366371 2.61863531,1.71921926 2.55285753,1.71744149 L1.83285753,1.70321926 C1.76530198,1.70321926 1.68085753,1.65610815 1.6435242,1.60010815 L1.24796864,1.00010815 C1.21063531,0.944108152 1.1635242,0.949441485 1.14041309,1.01344149 L0.904857533,1.69344149 C0.8835242,1.7565526 0.812413089,1.82321926 0.748413089,1.84010815 L0.0550797552,2.03121926 C-0.00980913368,2.04988593 -0.0186980226,2.09699704 0.0355241997,2.13788593 L0.609746422,2.5725526 C0.663079755,2.6125526 0.704857533,2.70144149 0.702190866,2.76810815 L0.668413089,3.48633037 C0.665746422,3.55477482 0.706635311,3.57699704 0.761746422,3.53966371 L1.35107976,3.12721926 C1.40707976,3.08721926 1.50219087,3.07477482 1.56707976,3.09877482 Z" id="path-6"></path>
        <filter x="-9.5%" y="-9.6%" width="119.1%" height="119.3%" filterUnits="objectBoundingBox" id="filter-7">
            <feOffset dx="0" dy="-0.5" in="SourceAlpha" result="shadowOffsetInner1"></feOffset>
            <feComposite in="shadowOffsetInner1" in2="SourceAlpha" operator="arithmetic" k2="-1" k3="1" result="shadowInnerInner1"></feComposite>
            <feColorMatrix values="0 0 0 0 1   0 0 0 0 1   0 0 0 0 1  0 0 0 0.5 0" type="matrix" in="shadowInnerInner1"></feColorMatrix>
        </filter>
    </defs>
    <g id="Page-1" stroke="none" stroke-width="1" fill="none" fill-rule="evenodd">
        <g id="bg_pre_game_item" transform="translate(-16.000000, -13.000000)">
            <g id="icon_tick" transform="translate(16.000000, 13.000000)">
                <g id="Group-8" transform="translate(2.000000, 0.000000)">
                    <g id="Path">
                        <use fill="url(#linearGradient-1)" fill-rule="evenodd" xlink:href="#path-2"></use>
                        <use fill="black" fill-opacity="1" filter="url(#filter-3)" xlink:href="#path-2"></use>
                    </g>
                    <g id="Path">
                        <use fill="url(#linearGradient-1)" fill-rule="evenodd" xlink:href="#path-4"></use>
                        <use fill="black" fill-opacity="1" filter="url(#filter-5)" xlink:href="#path-4"></use>
                    </g>
                    <g id="Path">
                        <use fill="url(#linearGradient-1)" fill-rule="evenodd" xlink:href="#path-6"></use>
                        <use fill="black" fill-opacity="1" filter="url(#filter-7)" xlink:href="#path-6"></use>
                    </g>
                </g>
                <path d="M0.230769231,11.8 C0.0769230769,11.64 0,11.4 0,11.24 C0,11.08 0.0769230769,10.84 0.230769231,10.68 L1.30769231,9.56 C1.61538462,9.24 2.07692308,9.24 2.38461538,9.56 L2.46153846,9.64 L6.69230769,14.36 C6.84615385,14.52 7.07692308,14.52 7.23076923,14.36 L17.5384615,3.24 L17.6153846,3.24 L17.6153846,3.24 C17.9230769,2.92 18.3846154,2.92 18.6923077,3.24 L19.7692308,4.36 C20.0769231,4.68 20.0769231,5.16 19.7692308,5.48 L19.7692308,5.48 L7.46153846,18.76 C7.30769231,18.92 7.15384615,19 6.92307692,19 C6.69230769,19 6.53846154,18.92 6.38461538,18.76 L0.384615385,12.04 L0.230769231,11.8 Z" id="Shape" fill="#FFFFFF" fill-rule="nonzero"></path>
            </g>
        </g>
    </g>
</svg>