<?xml version="1.0" encoding="UTF-8"?>
<svg width="44px" height="40px" viewBox="0 0 44 40" version="1.1" xmlns="http://www.w3.org/2000/svg" xmlns:xlink="http://www.w3.org/1999/xlink">
    <!-- Generator: Sketch 45.2 (43514) - http://www.bohemiancoding.com/sketch -->
    <title>icon_new_pre_game</title>
    <desc>Created with Sketch.</desc>
    <defs>
        <path d="M-3.55271368e-15,0 L44,0 L44,41 L3,41 L3,41 C1.34314575,41 -3.34980755e-15,39.6568542 -3.55271368e-15,38 L-3.55271368e-15,0 Z" id="path-1"></path>
        <path d="M51.3167422,23.9311729 L44.9978977,19.1562221 L47.303672,11.5770968 C47.457242,11.07261 47.3651234,10.5255168 47.0551742,10.0989854 C46.745342,9.67257108 46.2529113,9.41623088 45.7259507,9.4065157 L37.8049215,9.26195855 L35.2222062,1.77108921 C35.0502592,1.27222075 34.6539268,0.883028433 34.1520151,0.720094387 C33.6506886,0.557043291 33.1010202,0.639095566 32.6684023,0.941553593 L26.1750358,5.48474472 L19.6816692,0.941319493 C19.2494024,0.638978516 18.6999682,0.556809191 18.1981735,0.719860287 C17.6961447,0.882911383 17.3001634,1.2721037 17.1279824,1.77085511 L14.5453841,9.2616074 L6.62435487,9.4062816 C6.09739433,9.41599677 5.60519774,9.67221993 5.29524849,10.0987513 C4.98529924,10.5252827 4.89306359,11.0724929 5.04651656,11.5768627 L7.35252491,19.155871 L1.03379748,23.9311729 C0.61311863,24.2488474 0.366025404,24.745609 0.366025404,25.2725695 C0.366025404,25.7996471 0.61311863,26.2962916 1.03379748,26.6140833 L7.35264197,31.389034 L5.04686771,38.9680423 C4.89341474,39.4725291 4.98565039,40.0196223 5.29559964,40.4461537 C5.60554889,40.872568 6.09786253,41.1289082 6.62470602,41.1386234 L14.5457353,41.2832976 L17.1283336,48.7740499 C17.3002805,49.2729184 17.6964958,49.6621107 18.1982905,49.8250447 C18.6998512,49.9882129 19.2494024,49.9060435 19.6817863,49.6034685 L26.1751528,45.0602773 L32.6687534,49.6035855 C32.9547073,49.8036245 33.2919293,49.9073311 33.6327799,49.9073311 C33.8069507,49.9073311 33.9822921,49.8804095 34.1522492,49.8250447 C34.6539268,49.6619936 35.0502592,49.2728013 35.2222062,48.7740499 L37.8046874,41.2832976 L45.7260678,41.1385063 C46.2530283,41.1287912 46.7452249,40.872568 47.0550571,40.4460367 C47.3650064,40.0195053 47.4573591,39.4724121 47.303789,38.9679252 L44.9977807,31.389034 L51.3166252,26.6139662 C51.737304,26.2961746 51.9843973,25.7995301 51.9843973,25.2724525 C51.9843973,24.7453749 51.7374211,24.2487304 51.3167422,23.9311729 Z" id="path-3"></path>
        <linearGradient x1="50%" y1="0%" x2="50%" y2="100%" id="linearGradient-5">
            <stop stop-color="#94E7B5" offset="0%"></stop>
            <stop stop-color="#5BCB7E" offset="100%"></stop>
        </linearGradient>
    </defs>
    <g id="Page-1" stroke="none" stroke-width="1" fill="none" fill-rule="evenodd">
        <g id="icon_new_pre_game" transform="translate(0.000000, -1.650635)">
            <mask id="mask-2" fill="white">
                <use xlink:href="#path-1"></use>
            </mask>
            <g id="Mask" transform="translate(22.000000, 20.500000) rotate(-360.000000) translate(-22.000000, -20.500000) "></g>
            <g id="Oval-3-+-Shape-Copy-Mask" mask="url(#mask-2)">
                <g transform="translate(18.016660, 26.918584) rotate(-330.000000) translate(-18.016660, -26.918584) translate(-7.983340, 1.918584)">
                    <mask id="mask-4" fill="white">
                        <use xlink:href="#path-3"></use>
                    </mask>
                    <use id="Mask" stroke="none" fill="#FF9A84" fill-rule="nonzero" xlink:href="#path-3"></use>
                    <circle id="Oval-3" stroke="none" fill="#FFFFFF" fill-rule="evenodd" mask="url(#mask-4)" cx="24.0358984" cy="34.7942286" r="23"></circle>
                    <path d="M51.3167422,23.9311729 L44.9978977,19.1562221 L47.303672,11.5770968 C47.457242,11.07261 47.3651234,10.5255168 47.0551742,10.0989854 C46.745342,9.67257108 46.2529113,9.41623088 45.7259507,9.4065157 L37.8049215,9.26195855 L35.2222062,1.77108921 C35.0502592,1.27222075 34.6539268,0.883028433 34.1520151,0.720094387 C33.6506886,0.557043291 33.1010202,0.639095566 32.6684023,0.941553593 L26.1750358,5.48474472 L19.6816692,0.941319493 C19.2494024,0.638978516 18.6999682,0.556809191 18.1981735,0.719860287 C17.6961447,0.882911383 17.3001634,1.2721037 17.1279824,1.77085511 L14.5453841,9.2616074 L6.62435487,9.4062816 C6.09739433,9.41599677 5.60519774,9.67221993 5.29524849,10.0987513 C4.98529924,10.5252827 4.89306359,11.0724929 5.04651656,11.5768627 L7.35252491,19.155871 L1.03379748,23.9311729 C0.61311863,24.2488474 0.366025404,24.745609 0.366025404,25.2725695 C0.366025404,25.7996471 0.61311863,26.2962916 1.03379748,26.6140833 L7.35264197,31.389034 L5.04686771,38.9680423 C4.89341474,39.4725291 4.98565039,40.0196223 5.29559964,40.4461537 C5.60554889,40.872568 6.09786253,41.1289082 6.62470602,41.1386234 L14.5457353,41.2832976 L17.1283336,48.7740499 C17.3002805,49.2729184 17.6964958,49.6621107 18.1982905,49.8250447 C18.6998512,49.9882129 19.2494024,49.9060435 19.6817863,49.6034685 L26.1751528,45.0602773 L32.6687534,49.6035855 C32.9547073,49.8036245 33.2919293,49.9073311 33.6327799,49.9073311 C33.8069507,49.9073311 33.9822921,49.8804095 34.1522492,49.8250447 C34.6539268,49.6619936 35.0502592,49.2728013 35.2222062,48.7740499 L37.8046874,41.2832976 L45.7260678,41.1385063 C46.2530283,41.1287912 46.7452249,40.872568 47.0550571,40.4460367 C47.3650064,40.0195053 47.4573591,39.4724121 47.303789,38.9679252 L44.9977807,31.389034 L51.3166252,26.6139662 C51.737304,26.2961746 51.9843973,25.7995301 51.9843973,25.2724525 C51.9843973,24.7453749 51.7374211,24.2487304 51.3167422,23.9311729 Z M18.1925551,29.097774 C18.1925551,29.4614494 17.8977053,29.7561821 17.534147,29.7561821 L16.8160433,29.7561821 C16.452485,29.7561821 16.1576353,29.4613323 16.1576353,29.097774 L16.1576353,24.257158 C16.1576353,23.7125229 15.9907215,23.3008569 15.6477641,22.998633 C15.3005928,22.6928975 14.8161215,22.5376888 14.2079281,22.5376888 C13.5997346,22.5376888 13.1151463,22.6927805 12.767975,22.998633 C12.4250176,23.3007399 12.2582209,23.7124058 12.2582209,24.257041 L12.2582209,29.097657 C12.2582209,29.4613323 11.9633711,29.756065 11.5998128,29.756065 L10.8817091,29.756065 C10.5181508,29.756065 10.2233011,29.4612153 10.2233011,29.097657 L10.2233011,24.257041 C10.2233011,23.2449069 10.6178777,22.3673806 11.3962623,21.6488087 C12.1693797,20.9352699 13.1152633,20.5735844 14.2079281,20.5735844 C15.3005928,20.5735844 16.2463594,20.9352699 17.0193597,21.6488087 C17.7977443,22.3673806 18.1925551,23.2450239 18.1925551,24.257158 L18.1925551,29.097774 Z M28.2158081,26.6735448 C27.9996161,27.3660145 27.6230653,27.9717499 27.0639159,28.5257491 C26.1471778,29.4424872 25.0703148,29.8889171 23.7737484,29.8889171 C22.4772991,29.8889171 21.4005532,29.4437748 20.4817082,28.5282072 C19.5626291,27.6126396 19.115965,26.5341379 19.115965,25.2312508 C19.115965,23.9346844 19.562395,22.8578214 20.481357,21.9389764 C21.4003191,21.0201314 22.477182,20.5734674 23.7737484,20.5734674 C24.9874432,20.5734674 25.9766355,20.9026129 26.7138184,21.5516569 C27.2283716,22.0051099 27.5976653,22.4206385 27.8116333,22.787006 C27.9017621,22.9413954 27.9252892,23.1258667 27.8767133,23.2979306 C27.8280204,23.4701117 27.7114383,23.6149029 27.5537715,23.6994132 L21.7030112,26.832031 C21.7706663,26.9173606 21.8446421,27.0003493 21.9245875,27.0802947 C22.4391407,27.5948479 23.0439397,27.8449844 23.7739825,27.8449844 C24.5037913,27.8449844 25.1101119,27.5935603 25.6275914,27.0760809 C25.9052348,26.7984375 26.1079659,26.4861473 26.2301665,26.1474036 C26.3364481,25.8538414 26.6344583,25.6748715 26.943237,25.7194677 L27.6810052,25.8253982 C27.8720313,25.852788 28.0415202,25.9626982 28.1444074,26.1257493 C28.2468264,26.2892686 28.2730457,26.4893076 28.2158081,26.6735448 Z M42.1272386,26.2055777 C42.1272386,27.2357375 41.7600518,28.130002 41.0358615,28.8637904 C40.3108518,29.5986323 39.4230251,29.9713206 38.396962,29.9713206 C37.3603643,29.9713206 36.4532244,29.5740518 35.6954406,28.7894635 C34.9375398,29.5740518 34.0305168,29.9713206 32.9940363,29.9713206 C31.9679731,29.9713206 31.0800294,29.5986323 30.3549027,28.8635563 C29.6308294,28.1298849 29.2637596,27.2356205 29.2637596,26.2055777 L29.2637596,21.2824412 C29.2637596,20.9187658 29.5587264,20.6240331 29.9221677,20.6240331 L30.6630962,20.6240331 C31.0265374,20.6240331 31.3215042,20.9188829 31.3215042,21.2824412 L31.3215042,26.2055777 C31.3215042,26.7317188 31.4653591,27.1264125 31.7613793,27.4124835 C32.060677,27.702183 32.4637983,27.8427605 32.9940363,27.8427605 C33.523689,27.8427605 33.9252886,27.7024171 34.2211918,27.4137711 C34.5151052,27.1273489 34.6576725,26.732187 34.6576725,26.2056947 L34.6576725,21.2825582 C34.6576725,20.9188829 34.9527563,20.6241502 35.3160805,20.6241502 L36.0748007,20.6241502 C36.4382419,20.6241502 36.7332087,20.9189999 36.7332087,21.2825582 L36.7332087,26.2056947 C36.7332087,26.732187 36.8760101,27.1273489 37.1696894,27.4137711 C37.4655926,27.7025342 37.8671922,27.8428775 38.3968449,27.8428775 C38.9270829,27.8428775 39.3303212,27.7023001 39.6292678,27.4129517 C39.925171,27.1265296 40.069377,26.7317188 40.069377,26.2058118 L40.069377,21.2826753 C40.069377,20.9189999 40.3642267,20.6242672 40.727785,20.6242672 L41.4687135,20.6242672 C41.8321548,20.6242672 42.1271216,20.919117 42.1271216,21.2826753 L42.1272386,26.2055777 Z M23.7736314,22.617283 C24.2657109,22.617283 24.712492,22.7370255 25.1066004,22.9737013 L21.1635263,25.0779149 C21.1968856,24.4213796 21.446671,23.8664441 21.9248216,23.3858354 C22.4393748,22.8687071 23.0440567,22.617283 23.7736314,22.617283 Z" id="Shape-Copy" stroke="none" fill="url(#linearGradient-5)" fill-rule="nonzero" mask="url(#mask-4)"></path>
                </g>
            </g>
        </g>
    </g>
</svg>