<?xml version="1.0" encoding="UTF-8"?>
<svg width="16px" height="16px" viewBox="0 0 16 16" version="1.1" xmlns="http://www.w3.org/2000/svg" xmlns:xlink="http://www.w3.org/1999/xlink">
    <!-- Generator: Sketch 45.2 (43514) - http://www.bohemiancoding.com/sketch -->
    <title>icon_external</title>
    <desc>Created with Sketch.</desc>
    <defs></defs>
    <g id="Page-1" stroke="none" stroke-width="1" fill="none" fill-rule="evenodd">
        <g id="icon_external" fill-rule="nonzero" fill="#36569B">
            <path d="M15.0096901,0 L9.50969014,0 C8.96602817,0 8.52377465,0.442309859 8.52377465,0.985915493 C8.52377465,1.52952113 8.96602817,1.97183099 9.50969014,1.97183099 L12.6295211,1.97183099 L7.42529577,7.176 C7.23898592,7.36219718 7.1364507,7.60974648 7.1364507,7.8731831 C7.1364507,8.13661972 7.23892958,8.38411268 7.4251831,8.57014085 C7.61143662,8.75656338 7.85892958,8.85915493 8.1223662,8.85915493 C8.38569014,8.85915493 8.63329577,8.75661972 8.81960563,8.57030986 L14.0237746,3.36608451 L14.0237746,6.48591549 C14.0237746,7.02952113 14.4660845,7.47183099 15.0096901,7.47183099 C15.5532958,7.47183099 15.9956056,7.02952113 15.9956056,6.48591549 L15.9956056,0.985915493 C15.9956056,0.442309859 15.5532958,0 15.0096901,0 Z" id="Shape"></path>
            <path d="M11.331662,14.3054648 L1.69014085,14.3054648 L1.69014085,4.66394366 L8.94146479,4.66394366 L10.6316056,2.97380282 L0.845070423,2.97380282 C0.378366197,2.97380282 0,3.35216901 0,3.81887324 L0,15.1505352 C0,15.6172394 0.378366197,15.9956056 0.845070423,15.9956056 L12.1767324,15.9956056 C12.6434366,15.9956056 13.0218028,15.6172394 13.0218028,15.1505352 L13.0218028,5.364 L11.331662,7.05414085 L11.331662,14.3054648 Z" id="Shape"></path>
        </g>
    </g>
</svg>