<?xml version="1.0" encoding="UTF-8"?>
<svg width="293px" height="92px" viewBox="0 0 293 92" version="1.1" xmlns="http://www.w3.org/2000/svg" xmlns:xlink="http://www.w3.org/1999/xlink">
    <!-- Generator: Sketch 45.2 (43514) - http://www.bohemiancoding.com/sketch -->
    <title>logo</title>
    <desc>Created with Sketch.</desc>
    <defs>
        <linearGradient x1="50%" y1="-2.48949813e-15%" x2="50%" y2="100%" id="linearGradient-1">
            <stop stop-color="#FFFFFF" offset="0%"></stop>
            <stop stop-color="#FFFFFF" offset="97.5147481%"></stop>
        </linearGradient>
        <linearGradient x1="138.279131%" y1="24.7050175%" x2="4.14484639%" y2="97.7430713%" id="linearGradient-2">
            <stop stop-color="#F0F0F0" offset="0%"></stop>
            <stop stop-color="#F7F7F7" offset="39.3500049%"></stop>
            <stop stop-color="#C4C4C4" offset="50.1075602%"></stop>
            <stop stop-color="#FFFFFF" offset="84.9392798%"></stop>
            <stop stop-color="#AFAFAF" offset="100%"></stop>
        </linearGradient>
        <circle id="path-3" cx="40" cy="40" r="40"></circle>
        <filter x="-13.8%" y="-8.8%" width="127.5%" height="127.5%" filterUnits="objectBoundingBox" id="filter-5">
            <feOffset dx="0" dy="4" in="SourceAlpha" result="shadowOffsetOuter1"></feOffset>
            <feGaussianBlur stdDeviation="3" in="shadowOffsetOuter1" result="shadowBlurOuter1"></feGaussianBlur>
            <feComposite in="shadowBlurOuter1" in2="SourceAlpha" operator="out" result="shadowBlurOuter1"></feComposite>
            <feColorMatrix values="0 0 0 0 0   0 0 0 0 0   0 0 0 0 0  0 0 0 0.1 0" type="matrix" in="shadowBlurOuter1"></feColorMatrix>
        </filter>
        <path d="M34,6.11272632 L34,18.5201784 L44.074981,26 L54,20.0958279 L54,8.5225925 C51.3314982,5.79784833 48.1609318,3.58383626 44.6033402,2 L34,6.11272632 Z" id="path-6"></path>
        <filter x="-20.0%" y="-16.7%" width="140.0%" height="133.3%" filterUnits="objectBoundingBox" id="filter-7">
            <feGaussianBlur stdDeviation="3" in="SourceAlpha" result="shadowBlurInner1"></feGaussianBlur>
            <feOffset dx="0" dy="2" in="shadowBlurInner1" result="shadowOffsetInner1"></feOffset>
            <feComposite in="shadowOffsetInner1" in2="SourceAlpha" operator="arithmetic" k2="-1" k3="1" result="shadowInnerInner1"></feComposite>
            <feColorMatrix values="0 0 0 0 0   0 0 0 0 0   0 0 0 0 0  0 0 0 0.5 0" type="matrix" in="shadowInnerInner1"></feColorMatrix>
        </filter>
        <polygon id="path-8" points="31.9998941 22 22 29.6392756 25.8197629 42 38.1802371 42 42 29.6392756"></polygon>
        <filter x="-20.0%" y="-20.0%" width="140.0%" height="140.0%" filterUnits="objectBoundingBox" id="filter-9">
            <feGaussianBlur stdDeviation="3" in="SourceAlpha" result="shadowBlurInner1"></feGaussianBlur>
            <feOffset dx="0" dy="2" in="shadowBlurInner1" result="shadowOffsetInner1"></feOffset>
            <feComposite in="shadowOffsetInner1" in2="SourceAlpha" operator="arithmetic" k2="-1" k3="1" result="shadowInnerInner1"></feComposite>
            <feColorMatrix values="0 0 0 0 0   0 0 0 0 0   0 0 0 0 0  0 0 0 0.5 0" type="matrix" in="shadowInnerInner1"></feColorMatrix>
        </filter>
        <path d="M40.2623978,62.8828388 L46,53.7524628 L38.574536,46 L25.4244196,46 L18,53.7514323 L23.7593245,62.8904641 C29.1713015,64.3716282 34.8408128,64.3705978 40.2623978,62.8828388 Z" id="path-10"></path>
        <filter x="-14.3%" y="-22.2%" width="128.6%" height="144.4%" filterUnits="objectBoundingBox" id="filter-11">
            <feGaussianBlur stdDeviation="3" in="SourceAlpha" result="shadowBlurInner1"></feGaussianBlur>
            <feOffset dx="0" dy="2" in="shadowBlurInner1" result="shadowOffsetInner1"></feOffset>
            <feComposite in="shadowOffsetInner1" in2="SourceAlpha" operator="arithmetic" k2="-1" k3="1" result="shadowInnerInner1"></feComposite>
            <feColorMatrix values="0 0 0 0 0   0 0 0 0 0   0 0 0 0 0  0 0 0 0.5 0" type="matrix" in="shadowInnerInner1"></feColorMatrix>
        </filter>
        <path d="M24,0.995094298 L31.9980175,4 L40,0.993786111 C37.3696065,0.332061485 34.6863452,0 32.0022028,0 C29.318501,0 26.6341383,0.33293361 24,0.995094298 Z" id="path-12"></path>
        <filter x="-25.0%" y="-100.0%" width="150.0%" height="300.0%" filterUnits="objectBoundingBox" id="filter-13">
            <feGaussianBlur stdDeviation="3" in="SourceAlpha" result="shadowBlurInner1"></feGaussianBlur>
            <feOffset dx="0" dy="2" in="shadowBlurInner1" result="shadowOffsetInner1"></feOffset>
            <feComposite in="shadowOffsetInner1" in2="SourceAlpha" operator="arithmetic" k2="-1" k3="1" result="shadowInnerInner1"></feComposite>
            <feColorMatrix values="0 0 0 0 0   0 0 0 0 0   0 0 0 0 0  0 0 0 0.5 0" type="matrix" in="shadowInnerInner1"></feColorMatrix>
        </filter>
        <path d="M56.1877731,24 L46.0260642,29.8867333 L42,42.2166044 L49.3920319,50 L60.5215326,45.7569988 C60.8921941,45.0445757 61.2380889,44.3154436 61.5564884,43.569185 C62.9770078,40.2389043 63.7915816,36.7553199 64,33.2477166 L56.1877731,24 Z" id="path-14"></path>
        <filter x="-18.2%" y="-15.4%" width="136.4%" height="130.8%" filterUnits="objectBoundingBox" id="filter-15">
            <feGaussianBlur stdDeviation="3" in="SourceAlpha" result="shadowBlurInner1"></feGaussianBlur>
            <feOffset dx="0" dy="2" in="shadowBlurInner1" result="shadowOffsetInner1"></feOffset>
            <feComposite in="shadowOffsetInner1" in2="SourceAlpha" operator="arithmetic" k2="-1" k3="1" result="shadowInnerInner1"></feComposite>
            <feColorMatrix values="0 0 0 0 0   0 0 0 0 0   0 0 0 0 0  0 0 0 0.5 0" type="matrix" in="shadowInnerInner1"></feColorMatrix>
        </filter>
        <path d="M22,42.2195118 L17.9733211,29.8869659 L7.81195015,24 L0,33.2754182 C0.200893113,36.5955583 0.943798782,39.8973148 2.23249556,43.0712208 C2.59334746,43.9599062 2.99345432,44.825194 3.42798802,45.6677112 L14.6114578,50 L22,42.2195118 Z" id="path-16"></path>
        <filter x="-18.2%" y="-15.4%" width="136.4%" height="130.8%" filterUnits="objectBoundingBox" id="filter-17">
            <feGaussianBlur stdDeviation="3" in="SourceAlpha" result="shadowBlurInner1"></feGaussianBlur>
            <feOffset dx="0" dy="2" in="shadowBlurInner1" result="shadowOffsetInner1"></feOffset>
            <feComposite in="shadowOffsetInner1" in2="SourceAlpha" operator="arithmetic" k2="-1" k3="1" result="shadowInnerInner1"></feComposite>
            <feColorMatrix values="0 0 0 0 0   0 0 0 0 0   0 0 0 0 0  0 0 0 0.5 0" type="matrix" in="shadowInnerInner1"></feColorMatrix>
        </filter>
        <path d="M58,52 L50.1048118,55.1432346 L46,62 C50.7686444,59.6791856 54.8558654,56.2569522 58,52 Z" id="path-18"></path>
        <filter x="-33.3%" y="-40.0%" width="166.7%" height="180.0%" filterUnits="objectBoundingBox" id="filter-19">
            <feGaussianBlur stdDeviation="3" in="SourceAlpha" result="shadowBlurInner1"></feGaussianBlur>
            <feOffset dx="0" dy="2" in="shadowBlurInner1" result="shadowOffsetInner1"></feOffset>
            <feComposite in="shadowOffsetInner1" in2="SourceAlpha" operator="arithmetic" k2="-1" k3="1" result="shadowInnerInner1"></feComposite>
            <feColorMatrix values="0 0 0 0 0   0 0 0 0 0   0 0 0 0 0  0 0 0 0.5 0" type="matrix" in="shadowInnerInner1"></feColorMatrix>
        </filter>
        <path d="M58,14 L58,22.7121946 L64,30 C63.6654226,26.9796662 62.9295296,23.9871276 61.7912124,21.0921 C60.7912494,18.5488409 59.5156868,16.1746312 58,14 Z" id="path-20"></path>
        <filter x="-66.7%" y="-25.0%" width="233.3%" height="150.0%" filterUnits="objectBoundingBox" id="filter-21">
            <feGaussianBlur stdDeviation="3" in="SourceAlpha" result="shadowBlurInner1"></feGaussianBlur>
            <feOffset dx="0" dy="2" in="shadowBlurInner1" result="shadowOffsetInner1"></feOffset>
            <feComposite in="shadowOffsetInner1" in2="SourceAlpha" operator="arithmetic" k2="-1" k3="1" result="shadowInnerInner1"></feComposite>
            <feColorMatrix values="0 0 0 0 0   0 0 0 0 0   0 0 0 0 0  0 0 0 0.5 0" type="matrix" in="shadowInnerInner1"></feColorMatrix>
        </filter>
        <path d="M18,62 L13.8973457,55.1449133 L6,52 C9.13875914,56.2506092 13.2253668,59.6729144 18,62 Z" id="path-22"></path>
        <filter x="-33.3%" y="-40.0%" width="166.7%" height="180.0%" filterUnits="objectBoundingBox" id="filter-23">
            <feGaussianBlur stdDeviation="3" in="SourceAlpha" result="shadowBlurInner1"></feGaussianBlur>
            <feOffset dx="0" dy="2" in="shadowBlurInner1" result="shadowOffsetInner1"></feOffset>
            <feComposite in="shadowOffsetInner1" in2="SourceAlpha" operator="arithmetic" k2="-1" k3="1" result="shadowInnerInner1"></feComposite>
            <feColorMatrix values="0 0 0 0 0   0 0 0 0 0   0 0 0 0 0  0 0 0 0.5 0" type="matrix" in="shadowInnerInner1"></feColorMatrix>
        </filter>
        <path d="M19.925019,26 L30,18.5204401 L30,6.11342208 L19.3946055,2 C15.8413279,3.58021236 12.6709669,5.79477671 10,8.52320395 L10,20.0960344 L19.925019,26 Z" id="path-24"></path>
        <filter x="-20.0%" y="-16.7%" width="140.0%" height="133.3%" filterUnits="objectBoundingBox" id="filter-25">
            <feGaussianBlur stdDeviation="3" in="SourceAlpha" result="shadowBlurInner1"></feGaussianBlur>
            <feOffset dx="0" dy="2" in="shadowBlurInner1" result="shadowOffsetInner1"></feOffset>
            <feComposite in="shadowOffsetInner1" in2="SourceAlpha" operator="arithmetic" k2="-1" k3="1" result="shadowInnerInner1"></feComposite>
            <feColorMatrix values="0 0 0 0 0   0 0 0 0 0   0 0 0 0 0  0 0 0 0.5 0" type="matrix" in="shadowInnerInner1"></feColorMatrix>
        </filter>
        <path d="M0,30 L6,22.7132931 L6,14 C4.59413113,16.0168584 3.39492941,18.2079964 2.42856087,20.5469871 C1.16416587,23.6074724 0.35568039,26.7864221 0,30 Z" id="path-26"></path>
        <filter x="-66.7%" y="-25.0%" width="233.3%" height="150.0%" filterUnits="objectBoundingBox" id="filter-27">
            <feGaussianBlur stdDeviation="3" in="SourceAlpha" result="shadowBlurInner1"></feGaussianBlur>
            <feOffset dx="0" dy="2" in="shadowBlurInner1" result="shadowOffsetInner1"></feOffset>
            <feComposite in="shadowOffsetInner1" in2="SourceAlpha" operator="arithmetic" k2="-1" k3="1" result="shadowInnerInner1"></feComposite>
            <feColorMatrix values="0 0 0 0 0   0 0 0 0 0   0 0 0 0 0  0 0 0 0.5 0" type="matrix" in="shadowInnerInner1"></feColorMatrix>
        </filter>
    </defs>
    <g id="Page-1" stroke="none" stroke-width="1" fill="none" fill-rule="evenodd">
        <g id="logo" transform="translate(0.000000, 2.000000)">
            <g id="Group-15" fill="#36569B">
                <rect id="Rectangle-9" x="0" y="37" width="228" height="2" rx="1"></rect>
                <rect id="Rectangle-9-Copy" opacity="0.539999962" x="48" y="45" width="180" height="2" rx="1"></rect>
                <rect id="Rectangle-9-Copy-2" opacity="0.170000002" x="96" y="53" width="132" height="2" rx="1"></rect>
                <g id="Group" transform="translate(16.000000, 0.000000)">
                    <text id="SCORE" font-family="YanoneKaffeesatz-ExtraLight, Yanone Kaffeesatz" font-size="32" font-weight="300">
                        <tspan x="0" y="31">SCORE</tspan>
                    </text>
                    <path d="M71.9988082,26.9051918 C71.9985633,26.895249 71.9981878,26.8853224 71.9978776,26.8753959 C71.9972082,26.8535673 71.9964082,26.8317878 71.9954122,26.8100408 C71.9948735,26.7988082 71.994302,26.7875755 71.9936816,26.7763592 C71.9925224,26.755249 71.9911673,26.7341878 71.9896816,26.7131592 C71.9889306,26.7025959 71.9882286,26.6920327 71.9873796,26.6814857 C71.9854041,26.6561796 71.9831347,26.6309714 71.9806694,26.6058122 C71.9801143,26.6000163 71.9796408,26.5941878 71.9790531,26.5883918 C71.9759184,26.5577143 71.9723918,26.527151 71.9685551,26.4966694 C71.9674449,26.4876571 71.9661388,26.4786939 71.9649469,26.469698 C71.9620571,26.4479837 71.9590857,26.4263184 71.9558367,26.4047184 C71.9541714,26.3935837 71.9524245,26.3824816 71.9506776,26.3713796 C71.9475592,26.3515265 71.9442612,26.3317224 71.9408327,26.3119673 C71.9389224,26.3009306 71.9370122,26.2898776 71.9350204,26.2788735 C71.931102,26.2573388 71.9269388,26.2358857 71.9226776,26.2144653 C71.9209633,26.2058122 71.9193469,26.1971265 71.9175673,26.1885061 C71.9115102,26.1591184 71.9051429,26.1298449 71.898449,26.100702 C71.8966531,26.0928163 71.8946612,26.0849796 71.8928,26.0771265 C71.8876735,26.0554612 71.882449,26.0338612 71.8769959,26.0123429 C71.8741714,26.0012571 71.8712327,25.9902041 71.8683265,25.979151 C71.8634612,25.9606531 71.8584816,25.9421878 71.8533551,25.9238041 C71.8501714,25.9123918 71.8469551,25.9009959 71.8436898,25.8896163 C71.8382531,25.8707429 71.8326204,25.8519673 71.8269061,25.8332082 C71.8238041,25.8229714 71.820751,25.812702 71.8175673,25.8025143 C71.8088327,25.7746122 71.7998531,25.7468082 71.7905143,25.7191837 C71.7884898,25.7131755 71.786302,25.7072327 71.7842449,25.7012082 C71.7766041,25.6789714 71.768849,25.6567837 71.7608163,25.6347102 C71.7568327,25.6237551 71.7527184,25.6128653 71.7486531,25.6019429 C71.7422367,25.5847673 71.7357551,25.5676408 71.7291102,25.5505796 C71.7246041,25.5389388 71.7200163,25.5273306 71.7153796,25.5157551 C71.708702,25.4990531 71.7018776,25.4824163 71.6949714,25.4658122 C71.6903673,25.4547102 71.6857796,25.4436082 71.6810776,25.4325551 C71.6726367,25.4127673 71.6639837,25.3931102 71.6552327,25.3734857 C71.6518367,25.3658612 71.6485551,25.3581714 71.6451102,25.3505796 C71.6334531,25.324849 71.6214857,25.2992816 71.6092898,25.2738449 C71.6042122,25.2632327 71.5989714,25.2527347 71.5938122,25.2421878 C71.5859429,25.2261388 71.5780245,25.2101061 71.5699592,25.1941878 C71.5641306,25.1826939 71.5582204,25.1712653 71.5522939,25.1598367 C71.5444571,25.1447184 71.5365061,25.1296816 71.5284735,25.1146776 C71.522449,25.1034122 71.5164082,25.0921143 71.5102694,25.080898 C71.5013714,25.0646531 71.4922776,25.0485388 71.4831673,25.0324408 C71.4777796,25.0229061 71.4724898,25.0133061 71.4670204,25.0038204 C71.4530286,24.9795755 71.4387918,24.9555102 71.4243102,24.9315918 C71.418449,24.9218776 71.4123918,24.9122939 71.4064327,24.9026449 C71.3969469,24.8872816 71.3874449,24.871951 71.3777633,24.8567347 C71.3707918,24.8457796 71.3637551,24.8349224 71.3566694,24.824049 C71.3476245,24.8101061 71.338498,24.7962286 71.3292735,24.7824163 C71.3220082,24.7715265 71.3147102,24.7606531 71.3073469,24.7498449 C71.2975347,24.7354612 71.2875918,24.7211918 71.2776,24.7069388 C71.2707592,24.6971592 71.2639837,24.6873469 71.2570449,24.677649 C71.2409143,24.6550694 71.2245878,24.6326204 71.208,24.6103837 L71.208,24.6103837 C70.771151,24.0248816 70.1777306,23.5631837 69.4898612,23.2869224 C69.4898286,23.2869061 69.4897959,23.2869061 69.4897633,23.2868898 C69.4624,23.275902 69.4348571,23.2652408 69.4072,23.2548408 C69.4052082,23.2540898 69.403249,23.2533224 69.4012735,23.2525878 C69.3750531,23.2427755 69.3486694,23.2332898 69.3221878,23.2240163 C69.3186286,23.2227755 69.3150694,23.221502 69.3115102,23.2202612 C69.2862531,23.2114939 69.2608653,23.2030204 69.2353796,23.1947592 C69.2304653,23.1931592 69.225551,23.1915429 69.2206367,23.1899592 C69.1962449,23.1821551 69.1717224,23.1746122 69.1471184,23.167249 C69.1409143,23.1654041 69.1347265,23.1635429 69.1285388,23.1617306 C69.1049633,23.1548082 69.0812735,23.1481143 69.0575184,23.1416163 C69.0501061,23.1395755 69.0426776,23.1375673 69.0352327,23.1355755 C69.0124571,23.129502 68.9896163,23.1235918 68.9666776,23.1179102 C68.9580735,23.1157714 68.9494204,23.1136816 68.9407837,23.1115918 C68.9187755,23.1062857 68.8967347,23.1011265 68.8745796,23.0961959 C68.8648327,23.0940245 68.8550694,23.0919347 68.8453061,23.0898122 C68.8240327,23.0852408 68.8027592,23.0807837 68.7813714,23.0765388 C68.7704653,23.0743837 68.7595265,23.0723265 68.7485878,23.0702531 C68.7281469,23.0663837 68.7076735,23.0625796 68.6871184,23.0590204 C68.6750204,23.0569143 68.6628571,23.0549714 68.6507102,23.0529796 C68.6311184,23.0497633 68.6115102,23.0465959 68.5918204,23.0436735 C68.5784816,23.0416816 68.5650776,23.0399184 68.5517061,23.0380571 C68.5329959,23.0354776 68.5142857,23.0328653 68.4954776,23.0305469 C68.4808653,23.0287347 68.4661714,23.0271673 68.4515102,23.0255184 C68.4337469,23.0235265 68.416,23.0214694 68.3981551,23.0197061 C68.3820735,23.0181061 68.3659102,23.0168163 68.3497633,23.0154122 C68.3331592,23.0139755 68.3166041,23.0124245 68.2999347,23.0111837 C68.2819265,23.0098449 68.2638041,23.008849 68.2457306,23.0077551 C68.2307592,23.0068408 68.2158367,23.0057796 68.2008163,23.0050286 C68.1796735,23.0039837 68.1584163,23.0033306 68.1372082,23.0026122 C68.1250776,23.0022041 68.1129796,23.0015837 68.1008,23.0012898 C68.0672816,23.0004408 68.033698,23 68,23 C67.966302,23 67.9327184,23.0004408 67.8992163,23.0012735 C67.8870204,23.0015837 67.8749224,23.0021878 67.8627592,23.0025959 C67.841551,23.0033143 67.8203265,23.0039673 67.7992,23.0050122 C67.7841469,23.0057469 67.7691918,23.0068245 67.7542041,23.0077388 C67.7361633,23.0088327 67.7180735,23.0098449 67.7000816,23.0111673 C67.6833959,23.0124082 67.6667918,23.0139592 67.6501551,23.0153959 C67.6340571,23.0167837 67.6179102,23.0180898 67.6018776,23.0196898 C67.5839837,23.0214531 67.5661878,23.0235265 67.5483755,23.0255184 C67.5337633,23.0271673 67.5191347,23.0287184 67.5045714,23.0305306 C67.4857143,23.0328653 67.4669551,23.0354776 67.4481796,23.0380571 C67.4348571,23.039902 67.421502,23.0416816 67.4082286,23.0436408 C67.3884735,23.0465796 67.3688163,23.0497633 67.3491592,23.0529796 C67.3370939,23.0549551 67.3249959,23.0568816 67.3129469,23.0589714 C67.2923102,23.0625469 67.2717878,23.0663673 67.2512653,23.0702367 C67.2404082,23.0723102 67.229551,23.0743347 67.2187265,23.0764735 C67.1972735,23.0807347 67.1758857,23.0852082 67.1545469,23.0897959 C67.1448653,23.0918694 67.1352,23.0939592 67.125551,23.0961143 C67.1033143,23.1010776 67.0811265,23.1062531 67.0590367,23.1115755 C67.0505306,23.1136327 67.0420082,23.1157061 67.0335184,23.1178122 C67.010449,23.1235429 66.9874776,23.1294694 66.9645551,23.1355918 C66.9572735,23.1375347 66.9499755,23.1395102 66.9427102,23.141502 C66.9188082,23.1480327 66.8949878,23.1547755 66.871249,23.1617469 C66.8652245,23.1635102 66.8592163,23.1653224 66.8532245,23.1671184 C66.8284082,23.1745143 66.8037224,23.1821388 66.7791347,23.1900082 C66.7744327,23.1915102 66.7697469,23.1930449 66.7650612,23.1945796 C66.7393306,23.2029224 66.713698,23.2114776 66.6882122,23.2203265 C66.6849469,23.2214531 66.681698,23.2226286 66.6784163,23.2237714 C66.6516245,23.2331429 66.6249469,23.2427592 66.5984163,23.2526857 C66.5968327,23.2532735 66.5952653,23.2538939 66.593698,23.2544816 C65.8694204,23.5265796 65.2449306,24.0024816 64.7903673,24.6126204 C64.774449,24.6339918 64.7587429,24.6555102 64.743249,24.6772082 C64.7359347,24.6874612 64.728751,24.6978449 64.7215347,24.7081633 C64.711951,24.7218612 64.7023837,24.7355592 64.6929633,24.7493714 C64.6853551,24.7605224 64.6778612,24.7717224 64.6703673,24.7829388 C64.6614041,24.7963755 64.6525224,24.8098776 64.6437061,24.8234286 C64.6364408,24.8346449 64.6291592,24.8458286 64.6219918,24.8571102 C64.6126531,24.8717878 64.6034939,24.8865796 64.594351,24.9013878 C64.5880653,24.9115592 64.5817143,24.921649 64.5755265,24.9318694 C64.5611592,24.9556245 64.5470204,24.9795102 64.5331265,25.0035918 C64.5274449,25.0134367 64.5219429,25.0233959 64.5163592,25.0332898 C64.5074286,25.0490449 64.4985469,25.0648163 64.4898449,25.080702 C64.4836082,25.092098 64.4774857,25.1035592 64.4713469,25.1150204 C64.4634286,25.1297959 64.4555918,25.1446367 64.4478694,25.1595429 C64.4418449,25.1711184 64.4358694,25.1827265 64.4299429,25.1943837 C64.4219755,25.2101061 64.4141714,25.2259265 64.4064163,25.2417633 C64.4011592,25.2524898 64.3958367,25.2631673 64.3906612,25.2739592 C64.3786449,25.2990367 64.3668408,25.3242286 64.3553469,25.3495837 C64.3516898,25.357649 64.3481959,25.3657959 64.3445878,25.3738776 C64.3359184,25.3933551 64.3273143,25.4128653 64.3189551,25.4325061 C64.3142204,25.4436082 64.309649,25.4547592 64.3050122,25.4658939 C64.2981224,25.482449 64.2913143,25.4990531 64.2846531,25.5157061 C64.2800163,25.5273143 64.2754449,25.5389388 64.2708898,25.5505959 C64.2642776,25.5676408 64.2577959,25.5847347 64.2513959,25.6018939 C64.2473143,25.6128327 64.2431837,25.6237388 64.2391837,25.6347429 C64.2312,25.6567673 64.2234449,25.6788898 64.2158204,25.7010776 C64.2137469,25.7071347 64.2115429,25.7131265 64.209502,25.7191837 C64.2001633,25.7468245 64.1911837,25.7746286 64.182449,25.8025306 C64.1792653,25.8127184 64.1762122,25.8229551 64.1731102,25.8331755 C64.1673959,25.8519184 64.1617796,25.8707102 64.1563429,25.8895673 C64.1530612,25.9009469 64.1498449,25.9123592 64.1466612,25.9238041 C64.1415347,25.9422204 64.1365388,25.9606857 64.1316735,25.9792 C64.1287673,25.9902204 64.1258449,26.0012082 64.1230531,26.0122612 C64.1175673,26.0338612 64.1123102,26.0555429 64.1071673,26.0772735 C64.1053388,26.0850939 64.1033796,26.092849 64.1015673,26.1006694 C64.0948735,26.1298449 64.0885061,26.1591347 64.082449,26.1885388 C64.0806694,26.1971265 64.0790694,26.2057796 64.0773388,26.2143837 C64.0730612,26.2358367 64.0689143,26.2573061 64.0649796,26.2788898 C64.0629878,26.2898939 64.0610776,26.3009306 64.059151,26.311951 C64.0557224,26.3317388 64.0524408,26.3515755 64.0493061,26.3714612 C64.0475592,26.3825306 64.0458122,26.3935837 64.0441633,26.4046857 C64.0409306,26.426351 64.0379265,26.4480816 64.0350367,26.4698612 C64.0338612,26.4787918 64.0325714,26.4876898 64.0314449,26.4966531 C64.0276245,26.5271347 64.024098,26.5577143 64.0209469,26.5884082 C64.0203592,26.5942041 64.019902,26.6000327 64.0193306,26.6058286 C64.0168653,26.6309878 64.0145959,26.6561959 64.0126204,26.681502 C64.0117714,26.6920327 64.0110694,26.7026122 64.0103184,26.7131755 C64.0088327,26.7342041 64.0074776,26.7552653 64.0063184,26.7763755 C64.005698,26.7875918 64.0051265,26.7988245 64.0045878,26.8100571 C64.0035918,26.8317878 64.0027918,26.8535837 64.0021224,26.8754122 C64.0018122,26.8853388 64.0014367,26.895249 64.0011918,26.9052082 C64.0004571,26.9367184 64,26.9683102 64,27 C64,27.0283592 64.0004408,27.0566204 64.0010612,27.0848327 C64.0013388,27.0975347 64.0016653,27.1102367 64.0020571,27.1229061 C64.0024,27.1337959 64.0028571,27.1446367 64.0032816,27.1554939 C64.0307755,27.8742204 64.2478367,28.5442776 64.6059755,29.1171918 C64.6060245,29.1172571 64.6060571,29.1173224 64.6060898,29.1173878 C64.6739592,29.2259265 64.7468571,29.3309551 64.8245224,29.4321796 C64.8249306,29.4327347 64.8253714,29.4332898 64.8257959,29.4338449 C64.9026449,29.5339102 64.9840816,29.6302367 65.0698612,29.7225143 C65.0718531,29.7246531 65.0738449,29.7267918 65.0758367,29.7289306 C65.0921469,29.7463837 65.1085714,29.7637388 65.1251755,29.780898 C65.1258612,29.7816163 65.1265633,29.7823184 65.127249,29.7830367 C65.1788571,29.8362939 65.2319347,29.8881143 65.2864,29.938449 C65.2881306,29.940049 65.2898449,29.9416653 65.2915918,29.9432653 C65.3077224,29.9581224 65.324,29.9728 65.3403755,29.9873796 C65.3448653,29.9913959 65.3493878,29.9953959 65.3538939,29.9993959 C65.3699102,30.0135184 65.3859755,30.0275429 65.4022041,30.0414041 C65.4059429,30.0446204 65.4097633,30.0477878 65.4135184,30.0509878 C65.4653061,30.0949388 65.5182367,30.1375837 65.5722612,30.1789061 C65.577649,30.1830367 65.5830204,30.1872163 65.5884408,30.1913143 C65.6038531,30.2029878 65.6193959,30.214498 65.6350041,30.2259429 C65.6423673,30.2313633 65.6497469,30.2367347 65.6571429,30.2421061 C65.6724245,30.2531592 65.6877224,30.2641469 65.703151,30.2749878 C65.7103837,30.2800653 65.717698,30.2850776 65.7249796,30.2901224 C65.7762939,30.3256653 65.8284735,30.3600327 65.8814694,30.3932082 C65.8904,30.3987918 65.8992816,30.4044082 65.9082449,30.4099102 C65.9229551,30.4189551 65.9377633,30.4278531 65.9525878,30.436702 C65.9625796,30.4426776 65.9726204,30.4486041 65.9826776,30.4544816 C65.9972898,30.4630204 66.0119184,30.4715265 66.0266286,30.479902 C66.0370286,30.4857959 66.0474612,30.4915755 66.0579102,30.4973878 C66.1091592,30.5259102 66.1610612,30.5533061 66.213649,30.5796082 C66.2252408,30.5854041 66.2368,30.5912163 66.2484571,30.596898 C66.2628571,30.6039347 66.2773551,30.6108245 66.2918367,30.6176816 C66.3037388,30.6233143 66.3156898,30.628898 66.3276571,30.6344 C66.3421551,30.6410776 66.3566204,30.6477224 66.3712163,30.6542204 C66.3835102,30.6597061 66.3958694,30.6650449 66.4082286,30.6704163 C66.4226612,30.6766857 66.4370449,30.6830204 66.4515592,30.6891265 C66.4515918,30.6891429 66.4516245,30.6891592 66.4516735,30.6891755 C66.927951,30.8893224 67.4510367,31 68,31 C68.5415837,31 69.0578939,30.8921469 69.5289633,30.6971102 C69.5289959,30.6970939 69.5290449,30.6970776 69.5290776,30.6970612 C69.5533061,30.6870204 69.5774041,30.6767184 69.6014041,30.6662204 C69.6038367,30.6651592 69.6062857,30.6640816 69.6087184,30.6630204 C69.6321959,30.6526857 69.6555755,30.6421551 69.6788408,30.6313796 C69.6808163,30.6304653 69.6827918,30.6295347 69.6847673,30.6286204 C69.8070694,30.5717388 69.9260245,30.5088653 70.0412571,30.4403592 C70.0436735,30.4389224 70.0461061,30.437502 70.0485224,30.436049 C70.0691592,30.4237224 70.089649,30.4112 70.1100408,30.3985143 C70.1142531,30.395902 70.1184653,30.3932735 70.1226449,30.3906449 C70.142449,30.3782204 70.1621388,30.3656653 70.1817143,30.352898 C70.1857469,30.3502531 70.1897633,30.3475918 70.1937959,30.3449306 C70.2139102,30.3317061 70.2339592,30.3183837 70.2538286,30.3048163 C70.2546286,30.3042612 70.2554286,30.3037061 70.2562449,30.303151 C70.3206204,30.2590857 70.3836408,30.2131592 70.4452571,30.165502 C70.4484408,30.1630367 70.4516735,30.1606204 70.4548571,30.1581388 C70.4714612,30.1452082 70.4879184,30.1320653 70.5042939,30.1188898 C70.5109388,30.113551 70.5176,30.1082286 70.5242286,30.1028408 C70.5394122,30.0904653 70.5544816,30.0779755 70.5694694,30.0653878 C70.5770939,30.0590041 70.5846857,30.0525878 70.5922449,30.0461388 C70.6066612,30.0338612 70.6210122,30.0215184 70.635249,30.0090449 C70.643102,30.0021714 70.6508735,29.9952 70.6586612,29.9882612 C70.6726694,29.9757878 70.6866612,29.9633469 70.7004735,29.9506776 C70.7077388,29.9440163 70.7149061,29.9372408 70.7221224,29.9305306 C70.751902,29.9028571 70.7813061,29.8747592 70.8102367,29.8462041 C70.8142694,29.8422367 70.8183673,29.838351 70.8223673,29.834351 C70.8339429,29.8228408 70.8452898,29.8111347 70.8567184,29.7994776 C70.8662041,29.7897959 70.8757224,29.7801633 70.8851102,29.7703837 C70.8958367,29.7592163 70.9064327,29.7479184 70.9170122,29.7366367 C70.9269388,29.7260571 70.936849,29.7154612 70.9466612,29.7047837 C70.956751,29.6937959 70.9667592,29.6827265 70.976751,29.6716245 C70.9869714,29.6602449 70.9971102,29.6488 71.0072,29.6373061 C71.0166041,29.6265796 71.0260082,29.6158367 71.0353306,29.6049959 C71.0460898,29.5924571 71.0567347,29.5798204 71.0673306,29.567151 C71.0757714,29.5570939 71.0842612,29.5470857 71.0925878,29.5369306 C71.1058776,29.520751 71.1189551,29.5043918 71.132,29.488 C71.1374367,29.4811592 71.1430041,29.4744163 71.1483918,29.4675429 C71.1663673,29.4446531 71.184049,29.4215347 71.2015184,29.3982531 C71.2079347,29.3897306 71.2141714,29.3810612 71.2204898,29.3724898 C71.2320163,29.3568653 71.2435102,29.3412245 71.2548082,29.3254367 C71.2617633,29.3157388 71.2685878,29.3059592 71.2754612,29.2961796 C71.2859918,29.2812082 71.2964245,29.2661714 71.3067592,29.2510367 C71.3135837,29.2410122 71.3203755,29.2309551 71.3271184,29.2208653 C71.3374204,29.2054694 71.3475918,29.1899755 71.3576816,29.1744163 C71.3640163,29.1646694 71.370351,29.1549388 71.3765878,29.1451265 C71.3874286,29.128098 71.3980735,29.1109388 71.4086694,29.0937306 C71.4138449,29.0853224 71.4191184,29.0769796 71.4242286,29.0685388 C71.4395429,29.0432653 71.4545959,29.0178286 71.4693551,28.9921959 C71.4696163,28.9917714 71.4698612,28.9913469 71.4701061,28.9909388 C71.4701224,28.9909224 71.4701224,28.9908898 71.4701388,28.9908735 C71.7829878,28.4467429 71.9712163,27.8219755 71.9967184,27.1555102 C71.9971429,27.1446531 71.9976,27.1338122 71.9979429,27.1229224 C71.9983184,27.1102367 71.9986612,27.097551 71.9989388,27.084849 C71.9995592,27.0566367 72,27.0283755 72,27.0000163 C72,26.9683102 71.9995429,26.9367184 71.9988082,26.9051918 Z M68.1632653,24.2507102 L69.1725388,23.5174367 C69.2592163,23.5466612 69.3449959,23.5792 69.4297796,23.6150694 C69.8671837,23.8000816 70.2600816,24.0649796 70.597551,24.402449 C70.7816653,24.5865796 70.9440327,24.7873143 71.0837551,25.0026776 L70.7315102,26.1148735 L69.681649,26.4595429 L68.1632653,25.3564082 L68.1632653,24.2507102 Z M65.4024653,24.402449 C65.7399347,24.0649796 66.1328163,23.8000816 66.5702204,23.6150694 C66.6549878,23.5792163 66.7407673,23.5466612 66.8274776,23.5174367 L67.8367347,24.2507102 L67.8367347,25.3564082 L66.3102367,26.4654694 L65.2701714,26.1201306 L64.9162612,25.0026939 C65.056,24.7873306 65.218351,24.5865796 65.4024653,24.402449 Z M66.0444735,29.3450449 L65.0481143,29.1872163 C64.8744327,28.9534367 64.7294367,28.7001306 64.615102,28.4297469 C64.4278367,27.9870367 64.3311184,27.5171429 64.3269551,27.0326531 L65.1688163,26.4305143 L66.2095184,26.7760653 L66.7990531,28.590449 L66.0444735,29.3450449 Z M69.5898612,30.3126694 C69.5371755,30.3379592 69.4838367,30.3620408 69.4297796,30.3849143 C68.9771102,30.5763918 68.4960653,30.6734694 68,30.6734694 C67.503951,30.6734694 67.0228898,30.5763918 66.5702367,30.3849143 C66.5094367,30.3592 66.4495837,30.3317714 66.3905306,30.3029878 L66.2753796,29.5759184 L67.0890939,28.7622041 L69.0251918,28.7622041 L69.7246531,29.461649 L69.5898612,30.3126694 Z M71.3849143,28.4297633 C71.291249,28.6512163 71.1770122,28.8612245 71.0433306,29.058449 L69.9555102,29.2307265 L69.2290122,28.5042122 L69.793649,26.7664163 L70.8266612,26.4272653 L71.6730612,27.0326367 C71.668898,27.5171592 71.5721796,27.9870531 71.3849143,28.4297633 Z" id="Shape" fill-rule="nonzero"></path>
                    <text id="WATCH" font-family="YanoneKaffeesatz-ExtraLight, Yanone Kaffeesatz" font-size="32" font-weight="300">
                        <tspan x="72" y="31">WATCH</tspan>
                    </text>
                </g>
            </g>
            <g id="flaticon1495510905-svg" transform="translate(207.000000, 0.000000)">
                <mask id="mask-4" fill="white">
                    <use xlink:href="#path-3"></use>
                </mask>
                <g id="Mask">
                    <use fill="black" fill-opacity="1" filter="url(#filter-5)" xlink:href="#path-3"></use>
                    <use fill="url(#linearGradient-1)" fill-rule="evenodd" xlink:href="#path-3"></use>
                    <circle stroke="url(#linearGradient-2)" stroke-width="2" cx="40" cy="40" r="39"></circle>
                </g>
                <g mask="url(#mask-4)" id="Shape" fill-rule="nonzero">
                    <g transform="translate(8.000000, 8.000000)">
                        <g opacity="0.340000004">
                            <use fill="#39ADEA" fill-rule="evenodd" xlink:href="#path-6"></use>
                            <use fill="black" fill-opacity="1" filter="url(#filter-7)" xlink:href="#path-6"></use>
                        </g>
                        <g>
                            <use fill="#F5A623" fill-rule="evenodd" xlink:href="#path-8"></use>
                            <use fill="black" fill-opacity="1" filter="url(#filter-9)" xlink:href="#path-8"></use>
                        </g>
                        <g opacity="0.870000005">
                            <use fill="#E4BAFB" fill-rule="evenodd" xlink:href="#path-10"></use>
                            <use fill="black" fill-opacity="1" filter="url(#filter-11)" xlink:href="#path-10"></use>
                        </g>
                        <g opacity="0.200000003">
                            <use fill="#36CC64" fill-rule="evenodd" xlink:href="#path-12"></use>
                            <use fill="black" fill-opacity="1" filter="url(#filter-13)" xlink:href="#path-12"></use>
                        </g>
                        <g opacity="0.539999962">
                            <use fill="#FF785A" fill-rule="evenodd" xlink:href="#path-14"></use>
                            <use fill="black" fill-opacity="1" filter="url(#filter-15)" xlink:href="#path-14"></use>
                        </g>
                        <g opacity="0.870000005">
                            <use fill="#BBCC36" fill-rule="evenodd" xlink:href="#path-16"></use>
                            <use fill="black" fill-opacity="1" filter="url(#filter-17)" xlink:href="#path-16"></use>
                        </g>
                        <g opacity="0.539999962">
                            <use fill="#36CC64" fill-rule="evenodd" xlink:href="#path-18"></use>
                            <use fill="black" fill-opacity="1" filter="url(#filter-19)" xlink:href="#path-18"></use>
                        </g>
                        <g opacity="0.200000003">
                            <use fill="#FF785A" fill-rule="evenodd" xlink:href="#path-20"></use>
                            <use fill="black" fill-opacity="1" filter="url(#filter-21)" xlink:href="#path-20"></use>
                        </g>
                        <g opacity="0.539999962">
                            <use fill="#FF785A" fill-rule="evenodd" xlink:href="#path-22"></use>
                            <use fill="black" fill-opacity="1" filter="url(#filter-23)" xlink:href="#path-22"></use>
                        </g>
                        <g opacity="0.539999962">
                            <use fill="#36CC64" fill-rule="evenodd" xlink:href="#path-24"></use>
                            <use fill="black" fill-opacity="1" filter="url(#filter-25)" xlink:href="#path-24"></use>
                        </g>
                        <g opacity="0.539999962">
                            <use fill="#FF785A" fill-rule="evenodd" xlink:href="#path-26"></use>
                            <use fill="black" fill-opacity="1" filter="url(#filter-27)" xlink:href="#path-26"></use>
                        </g>
                    </g>
                </g>
                <rect id="Rectangle-4" fill="#000000" opacity="0.340919384" style="mix-blend-mode: overlay;" mask="url(#mask-4)" x="2" y="-1" width="80" height="80"></rect>
            </g>
        </g>
    </g>
</svg>