<?xml version="1.0" encoding="UTF-8"?>
<svg width="32px" height="22px" viewBox="0 0 32 22" version="1.1" xmlns="http://www.w3.org/2000/svg" xmlns:xlink="http://www.w3.org/1999/xlink">
    <!-- Generator: Sketch 45.2 (43514) - http://www.bohemiancoding.com/sketch -->
    <title>menu_livescores</title>
    <desc>Created with Sketch.</desc>
    <defs></defs>
    <g id="Page-1" stroke="none" stroke-width="1" fill="none" fill-rule="evenodd">
        <g id="menu_livescores" fill-rule="nonzero">
            <path d="M30.060375,0.521 L1.939625,0.521 C1.130875,0.521 0.47525,1.176625 0.47525,1.985375 L0.47525,19.514625 C0.47525,20.323375 1.130875,20.979 1.939625,20.979 L30.0603125,20.979 C30.8690625,20.979 31.5246875,20.323375 31.5246875,19.514625 L31.5246875,1.9853125 C31.52475,1.1765625 30.869125,0.521 30.060375,0.521 Z" id="Shape" fill="#FCF6D6"></path>
            <rect id="Rectangle-path" fill="#1E9FE0" x="2.6461875" y="2.5484375" width="11.5954375" height="2.7563125"></rect>
            <g id="Group" transform="translate(17.750000, 2.500000)" fill="#EA5149">
                <rect id="Rectangle-path" x="0.0084375" y="0.0484375" width="11.595375" height="2.7563125"></rect>
                <path d="M5.363625,10.6485625 L4.262625,10.6485625 L4.262625,8.8369375 L5.363625,8.8369375 C5.8745625,8.8369375 6.2705,8.7359375 6.551625,8.5338125 C6.832625,8.33175 6.9731875,8.04725 6.9731875,7.68025 C6.9731875,7.29475 6.832625,6.9939375 6.551625,6.7779375 C6.2705625,6.5619375 5.8745625,6.4539375 5.363625,6.4539375 C4.973375,6.4539375 4.5553125,6.50275 4.1094375,6.60025 C3.6634375,6.69775 3.2011875,6.8395 2.7228125,7.02525 L2.7228125,5.157875 C3.20125,5.0139375 3.67275,4.9035 4.1373125,4.826875 C4.60175,4.75025 5.0476875,4.7119375 5.4751875,4.7119375 C6.5715,4.7119375 7.42625,4.9511875 8.039375,5.429625 C8.6525625,5.908125 8.9591875,6.5678125 8.9591875,7.4085 C8.9591875,8.026375 8.7825625,8.5315625 8.429625,8.9240625 C8.0765,9.316625 7.5725,9.57325 6.9175625,9.694 C7.66075,9.8240625 8.227625,10.1201875 8.61775,10.582375 C9.007875,11.044625 9.203,11.6519375 9.203,12.4045 C9.203,13.412625 8.880125,14.181375 8.2345,14.7109375 C7.58875,15.2405 6.6503125,15.5053125 5.419375,15.5053125 C4.8944375,15.5053125 4.3776875,15.4610625 3.8690625,15.3729375 C3.360375,15.28475 2.8736875,15.1569375 2.4093125,14.9896875 L2.4093125,13.0804375 C2.8459375,13.298875 3.317375,13.464875 3.82375,13.5786875 C4.3300625,13.6925625 4.862,13.749375 5.4194375,13.749375 C5.976875,13.749375 6.418125,13.6205 6.743375,13.362625 C7.0685,13.1048125 7.231125,12.757625 7.231125,12.3209375 C7.231125,11.78675 7.0685,11.3744375 6.743375,11.0840625 C6.4180625,10.7938125 5.958125,10.6485625 5.363625,10.6485625 Z" id="Shape"></path>
            </g>
            <path d="M7.3639375,15.9915 L11.7468125,15.9915 L11.7468125,17.803125 L5.141125,17.803125 L5.141125,16.0471875 L6.256,14.862625 C7.5799375,13.455125 8.3835625,12.588875 8.666875,12.2635625 C9.01525,11.864125 9.266125,11.5099375 9.4195,11.201 C9.57275,10.892125 9.649375,10.58675 9.649375,10.28475 C9.649375,9.8203125 9.5088125,9.4615 9.2278125,9.20825 C8.94675,8.9551875 8.5484375,8.8285 8.032875,8.8285 C7.6659375,8.8285 7.253625,8.9016875 6.796,9.048 C6.3384375,9.1943125 5.8611875,9.406875 5.364125,9.6855 L5.364125,7.7693125 C5.86125,7.588125 6.34775,7.45 6.8239375,7.3546875 C7.3000625,7.2595625 7.7564375,7.211875 8.193125,7.211875 C9.2940625,7.211875 10.1591875,7.4685625 10.7886875,7.9818125 C11.4180625,8.495125 11.7328125,9.1954375 11.7328125,10.0826875 C11.7328125,10.4915 11.66425,10.8746875 11.52725,11.2323125 C11.3901875,11.5900625 11.1544375,11.98725 10.82,12.423875 C10.57375,12.7398125 9.8978125,13.450625 8.792375,14.5560625 C8.1930625,15.1553125 7.716875,15.633875 7.3639375,15.9915 Z" id="Shape" fill="#1E9FE0"></path>
            <g id="Group" transform="translate(14.937500, 9.500000)" fill="#FFFFFF">
                <circle id="Oval" cx="1.0625" cy="1.0820625" r="1.0590625"></circle>
                <circle id="Oval" cx="1.0625" cy="5.549375" r="1.0590625"></circle>
            </g>
            <path d="M30.060375,0.04575 L1.9395625,0.04575 C0.8700625,0.04575 0,0.9158125 0,1.9853125 L0,19.5145 C0,20.584 0.8700625,21.454125 1.9395625,21.454125 L25.8853125,21.454125 C26.1478125,21.454125 26.3605625,21.2413125 26.3605625,20.978875 C26.3605625,20.7164375 26.1478125,20.503625 25.8853125,20.503625 L1.9395625,20.503625 C1.3941875,20.503625 0.9505,20.0599375 0.9505,19.5145 L0.9505,1.9853125 C0.9505,1.4399375 1.3941875,0.9961875 1.9395625,0.9961875 L30.06025,0.9961875 C30.605625,0.9961875 31.049375,1.4399375 31.049375,1.9853125 L31.049375,19.5145 C31.049375,20.059875 30.605625,20.503625 30.06025,20.503625 L27.469375,20.503625 C27.206875,20.503625 26.994125,20.7164375 26.994125,20.978875 C26.994125,21.2413125 27.206875,21.454125 27.469375,21.454125 L30.06025,21.454125 C31.1298125,21.454125 31.999875,20.5840625 31.999875,19.5145 L31.999875,1.9853125 C32,0.9158125 31.1299375,0.04575 30.060375,0.04575 Z" id="Shape" fill="#000000"></path>
            <path d="M14.716875,5.30475 L14.716875,2.5484375 C14.716875,2.286 14.504125,2.0731875 14.241625,2.0731875 L5.8615625,2.0731875 C5.5990625,2.0731875 5.3863125,2.286 5.3863125,2.5484375 C5.3863125,2.810875 5.5990625,3.0236875 5.8615625,3.0236875 L13.766375,3.0236875 L13.766375,4.8295 L3.1215,4.8295 L3.1215,3.0236875 L4.2774375,3.0236875 C4.5399375,3.0236875 4.7526875,2.810875 4.7526875,2.5484375 C4.7526875,2.286 4.5399375,2.0731875 4.2774375,2.0731875 L2.64625,2.0731875 C2.38375,2.0731875 2.171,2.286 2.171,2.5484375 L2.171,5.30475 C2.171,5.5671875 2.38375,5.78 2.64625,5.78 L14.2416875,5.78 C14.5041875,5.78 14.716875,5.5673125 14.716875,5.30475 Z" id="Shape" fill="#000000"></path>
            <path d="M29.35375,5.78 C29.61625,5.78 29.829,5.5671875 29.829,5.30475 L29.829,2.5484375 C29.829,2.286 29.61625,2.0731875 29.35375,2.0731875 L17.7583125,2.0731875 C17.4958125,2.0731875 17.2830625,2.286 17.2830625,2.5484375 L17.2830625,5.30475 C17.2830625,5.5671875 17.4958125,5.78 17.7583125,5.78 L29.35375,5.78 Z M18.2335625,3.02375 L28.8785625,3.02375 L28.8785625,4.8295625 L18.2335625,4.8295625 L18.2335625,3.02375 Z" id="Shape" fill="#000000"></path>
            <path d="M19.99825,17.9368125 C20.4865625,18.1125625 21.0045,18.248625 21.5378125,18.341125 C22.0714375,18.4335625 22.6203125,18.4805625 23.169375,18.4805625 C24.507375,18.4805625 25.555875,18.1770625 26.2859375,17.5784375 C27.0439375,16.956625 27.42825,16.057 27.42825,14.9045625 C27.42825,14.040375 27.1936875,13.3241875 26.730875,12.775875 C26.5320625,12.5403125 26.2954375,12.3408125 26.0223125,12.177875 C26.21375,12.0526875 26.384125,11.90725 26.533,11.741875 C26.96525,11.2611875 27.184375,10.644375 27.184375,9.9085 C27.184375,8.91775 26.813375,8.1259375 26.0816875,7.5549375 C25.8746875,7.3935625 25.5760625,7.430375 25.414625,7.63725 C25.2531875,7.844125 25.29,8.142875 25.4969375,8.3043125 C25.9928125,8.69125 26.2339375,9.216 26.2339375,9.9085 C26.2339375,10.4094375 26.100625,10.8011875 25.82625,11.1061875 C25.5465625,11.4171875 25.1276875,11.6259375 24.581375,11.726625 C24.3551875,11.7683125 24.19125,11.9660625 24.19225,12.1961875 C24.19325,12.42625 24.358875,12.6225 24.5855,12.6621875 C25.2215,12.7735 25.6856875,13.0113125 26.0045,13.389 C26.3229375,13.7663125 26.47775,14.262 26.47775,14.9045625 C26.47775,15.770625 26.21775,16.4049375 25.683125,16.8435 C25.1275625,17.2990625 24.2818125,17.5300625 23.169375,17.5300625 C22.6745625,17.5300625 22.1803125,17.487875 21.7001875,17.4046875 C21.3344375,17.34125 20.9773125,17.25525 20.6345625,17.148125 L20.6345625,16.29975 C20.90325,16.3966875 21.18225,16.4778125 21.4694375,16.5423125 C22.007125,16.66325 22.579125,16.724625 23.1694375,16.724625 C23.8339375,16.724625 24.37875,16.5599375 24.7886875,16.2350625 C25.2255,15.8886875 25.4563125,15.3996875 25.4563125,14.821 C25.4563125,14.148125 25.2388125,13.61275 24.809875,13.229625 C24.396375,12.8605625 23.82575,12.6734375 23.11375,12.6734375 L22.488,12.6734375 L22.488,11.8123125 L23.11375,11.8123125 C23.723875,11.8123125 24.2169375,11.68025 24.5791875,11.419875 C24.9845,11.1285625 25.1985625,10.7 25.1985625,10.180375 C25.1985625,9.648875 24.988625,9.2065625 24.5913125,8.9011875 C24.2265625,8.6209375 23.729375,8.4788125 23.11375,8.4788125 C22.69125,8.4788125 22.2350625,8.53175 21.7579375,8.6360625 C21.4944375,8.6936875 21.223625,8.7665625 20.9480625,8.8539375 L20.9480625,8.016875 C21.2913125,7.924875 21.632,7.8508125 21.9646875,7.7959375 C22.4014375,7.723875 22.8254375,7.6873125 23.2251875,7.6873125 C23.6870625,7.6873125 24.104625,7.733375 24.46625,7.8241875 C24.720625,7.8881875 24.979,7.733625 25.043,7.479 C25.1069375,7.224375 24.952375,6.96625 24.697875,6.9023125 C24.2605625,6.7925 23.7650625,6.7368125 23.22525,6.7368125 C22.773875,6.7368125 22.29775,6.777625 21.8100625,6.858125 C21.3281875,6.9375625 20.832125,7.053625 20.3359375,7.202875 C20.135125,7.2633125 19.997625,7.4483125 19.997625,7.658 L19.997625,9.525375 C19.997625,9.6821875 20.075,9.8289375 20.2044375,9.9175625 C20.3338125,10.0060625 20.4986875,10.02525 20.6448125,9.9684375 C21.09875,9.7921875 21.5415625,9.656375 21.9610625,9.564625 C22.371625,9.4748125 22.7594375,9.42925 23.1136875,9.42925 C23.5150625,9.42925 23.8173125,9.5051875 24.012125,9.65475 C24.1753125,9.780125 24.248125,9.9423125 24.248125,10.1803125 C24.248125,10.3954375 24.1811875,10.5353125 24.024375,10.648 C23.827125,10.7898125 23.5208125,10.86175 23.1138125,10.86175 L22.0128125,10.86175 C21.7503125,10.86175 21.5375625,11.0745625 21.5375625,11.337 L21.5375625,13.148625 C21.5375625,13.4110625 21.7503125,13.623875 22.0128125,13.623875 L23.1138125,13.623875 C23.5851875,13.623875 23.942875,13.7298125 24.176875,13.938625 C24.39825,14.1363125 24.505875,14.424875 24.505875,14.8209375 C24.505875,15.1110625 24.408125,15.3238125 24.1983125,15.4901875 C23.960625,15.6785625 23.6144375,15.7740625 23.1695625,15.7740625 C22.64925,15.7740625 22.1474375,15.7205 21.678125,15.6149375 C21.2115625,15.510125 20.7721875,15.3554375 20.372125,15.1553125 C20.2249375,15.081625 20.0498125,15.0894375 19.9096875,15.1760625 C19.7695625,15.2626875 19.68425,15.415625 19.68425,15.5803125 L19.68425,17.4895625 C19.684,17.6900625 19.809625,17.868875 19.99825,17.9368125 Z" id="Shape" fill="#000000"></path>
            <path d="M8.3084375,11.9515 C8.0315,12.2694375 7.2245,13.1393125 5.90975,14.537 L4.794875,15.7215625 C4.7119375,15.8096875 4.66575,15.9261875 4.66575,16.04725 L4.66575,17.8031875 C4.66575,18.065625 4.8785,18.2784375 5.141,18.2784375 L11.7466875,18.2784375 C12.0091875,18.2784375 12.2219375,18.065625 12.2219375,17.8031875 L12.2219375,15.9915625 C12.2219375,15.729125 12.0091875,15.5163125 11.7466875,15.5163125 L8.5051875,15.5163125 C8.6961875,15.3246875 8.9040625,15.1164375 9.1283125,14.8921875 C10.25825,13.7621875 10.93425,13.050375 11.1971875,12.7129375 C11.55775,12.24225 11.818125,11.8013125 11.9709375,11.402375 C12.128125,10.991875 12.207875,10.5479375 12.207875,10.0826875 C12.207875,9.049875 11.8314375,8.219125 11.0888125,7.6135 C10.3751875,7.0316875 9.400875,6.7366875 8.193,6.7366875 C7.7275,6.7366875 7.2355625,6.7878125 6.7305625,6.88875 C6.232875,6.9883125 5.718375,7.1343125 5.2011875,7.3228125 C5.0135625,7.39125 4.8886875,7.569625 4.8886875,7.769375 L4.8886875,9.6855625 C4.8886875,9.8543125 4.9781875,10.0103125 5.1236875,10.0956875 C5.2693125,10.181 5.44925,10.182625 5.5963125,10.100125 C6.0633125,9.8383125 6.515625,9.636625 6.9405625,9.5006875 C7.349125,9.37 7.716625,9.3038125 8.032625,9.3038125 C8.4246875,9.3038125 8.7196875,9.3905 8.9094375,9.5613125 C9.0874375,9.7216875 9.1739375,9.958375 9.1739375,10.2848125 C9.1739375,10.514625 9.1149375,10.7453125 8.9935625,10.989875 C8.8593125,11.26075 8.628875,11.58425 8.3084375,11.9515 Z M9.8451875,11.41225 C10.030625,11.038625 10.1245625,10.65925 10.1245625,10.2846875 C10.1245625,9.682125 9.929875,9.201125 9.54575,8.8549375 C9.175875,8.5219375 8.666875,8.353125 8.03275,8.353125 C7.6183125,8.353125 7.1535,8.4345625 6.6511875,8.5951875 C6.3873125,8.6795625 6.1159375,8.78525 5.83925,8.9110625 L5.83925,8.1073125 C6.204875,7.987 6.5661875,7.8908125 6.917,7.820625 C7.360625,7.732 7.7899375,7.6870625 8.1930625,7.6870625 C9.1765,7.6870625 9.9486875,7.9101875 10.48825,8.35 C11.005875,8.7721875 11.2575,9.338875 11.2575,10.0825625 C11.2575,10.4310625 11.1989375,10.7606875 11.0834375,11.0621875 C10.9633125,11.37575 10.7478125,11.736625 10.445125,12.131625 C10.2121875,12.4305 9.5430625,13.133125 8.4563125,14.2199375 C7.860625,14.8155625 7.37925,15.29925 7.0256875,15.6575 C6.8910625,15.7939375 6.8515625,15.9978125 6.9254375,16.1746875 C6.999375,16.3515 7.1723125,16.466625 7.3639375,16.466625 L11.2715625,16.466625 L11.2715625,17.32775 L5.616375,17.32775 L5.616375,16.2355 L6.6021875,15.188125 C7.9438125,13.7618125 8.7365,12.9071875 9.0250625,12.575875 C9.403875,12.141625 9.6721875,11.761 9.8451875,11.41225 Z" id="Shape" fill="#000000"></path>
            <path d="M16,9.04775 C15.154,9.04775 14.4656875,9.7360625 14.4656875,10.5820625 C14.4656875,11.4280625 15.154,12.116375 16,12.116375 C16.846,12.116375 17.5343125,11.4280625 17.5343125,10.5820625 C17.5343125,9.7360625 16.846,9.04775 16,9.04775 Z M16,11.165875 C15.678125,11.165875 15.4161875,10.904 15.4161875,10.5820625 C15.4161875,10.2601875 15.6780625,9.99825 16,9.99825 C16.321875,9.99825 16.5838125,10.260125 16.5838125,10.5820625 C16.5838125,10.9039375 16.321875,11.165875 16,11.165875 Z" id="Shape" fill="#000000"></path>
            <path d="M16,13.5148125 C15.154,13.5148125 14.4656875,14.203125 14.4656875,15.049125 C14.4656875,15.895125 15.154,16.5834375 16,16.5834375 C16.846,16.5834375 17.5343125,15.895125 17.5343125,15.049125 C17.5343125,14.203125 16.846,13.5148125 16,13.5148125 Z M16,15.633 C15.678125,15.633 15.4161875,15.371125 15.4161875,15.0491875 C15.4161875,14.7273125 15.6780625,14.465375 16,14.465375 C16.321875,14.465375 16.5838125,14.72725 16.5838125,15.0491875 C16.5838125,15.3710625 16.321875,15.633 16,15.633 Z" id="Shape" fill="#000000"></path>
        </g>
    </g>
</svg>