<?xml version="1.0" encoding="UTF-8"?>
<svg width="32px" height="32px" viewBox="0 0 32 32" version="1.1" xmlns="http://www.w3.org/2000/svg" xmlns:xlink="http://www.w3.org/1999/xlink">
    <!-- Generator: Sketch 45.2 (43514) - http://www.bohemiancoding.com/sketch -->
    <title>menu_aboutus</title>
    <desc>Created with Sketch.</desc>
    <defs></defs>
    <g id="Page-1" stroke="none" stroke-width="1" fill="none" fill-rule="evenodd">
        <g id="menu_aboutus">
            <circle id="Oval-2" cx="16" cy="16" r="16"></circle>
            <g id="flaticon1499312019-svg" fill-rule="nonzero">
                <path d="M0,15.9742455 C0,7.15331992 7.15331992,0 15.9742455,0 C24.795171,0 31.9484909,7.15331992 31.9484909,15.9742455 C31.9484909,24.795171 24.795171,31.9484909 15.9742455,31.9484909 C7.15331992,31.9484909 0,24.795171 0,15.9742455 Z" id="Shape" fill="#E6E6E6"></path>
                <path d="M24.3702213,8.83380282 C22.3549296,6.47726358 19.3609658,4.98350101 16.0193159,4.98350101 C9.94768612,4.98350101 5.02857143,9.90261569 5.02857143,15.9742455 C5.02857143,19.4124748 6.61247485,22.4837022 9.08490946,24.498994 C10.9778672,26.037827 13.3923541,26.9649899 16.0193159,26.9649899 C22.0909457,26.9649899 27.0100604,22.0458753 27.0100604,15.9742455 C27.0036217,13.2442656 26.0120724,10.7525151 24.3702213,8.83380282 Z" id="Shape" fill="#D8D8D8"></path>
                <path d="M21.0800805,21.1251509 C24.5311871,17.6740443 25.6579477,12.8579477 24.3637827,8.83380282 C22.3484909,6.47726358 19.3545272,4.98350101 16.0128773,4.98350101 C9.94124748,4.98350101 5.0221328,9.90261569 5.0221328,15.9742455 C5.0221328,19.4124748 6.60603622,22.4837022 9.07847082,24.498994 C13.044668,25.6450704 17.7126761,24.4925553 21.0800805,21.1251509 Z" id="Shape" fill="#FFFFFF"></path>
                <g id="Group" transform="translate(4.893360, 5.086519)" fill="#3A3A39">
                    <path d="M18.6527163,11.0615694 C19.3867203,10.1859155 19.5605634,7.29496982 19.5798793,6.92152918 L21.4406439,7.06961771 C21.4406439,7.06961771 20.3203219,3.38672032 16.5215292,1.33279678 L16.5215292,3.39315895 C15.3561368,3.39959759 12.8257545,3.87605634 12.3299799,3.97907445 C10.5979879,2.60120724 9.02696177,2.53682093 8.68571429,2.53682093 L8.60201207,0.489336016 L9.52917505,0.0128772636 C9.52917505,0.0128772636 8.42173038,0.135211268 7.45593561,0.482897384 L8.49255533,0.521529175 L8.57625755,2.55613682 C6.77344064,3.07122736 5.41488934,4.96418511 5.17022133,5.31830986 C3.63782696,5.3054326 2.4917505,5.94285714 2.11187123,6.18752515 L2.11187123,4.51991952 C2.11187123,4.51991952 0.367002012,6.57384306 0.0579476861,10.6108652 L0.585915493,10.6108652 C0.598792757,11.016499 0.740442656,12.8643863 2.38229376,14.4804829 C2.40804829,16.5794769 3.4832998,18.0796781 3.70221328,18.3629779 L3.35452716,18.6784708 L3.43179074,18.762173 L3.78591549,18.4466801 C4.83541247,19.2837022 6.78631791,19.5863179 7.19195171,19.6442656 C7.37867203,19.8374245 8.7501006,21.2152918 10.5142857,21.7110664 L10.4949698,21.8849095 C13.5661972,22.0716298 15.7360161,20.8933602 15.7360161,20.8933602 L15.3239437,20.5327968 C15.6780684,20.0112676 16.3026157,18.1633803 16.3863179,17.9122736 C17.731992,17.3392354 19.2321932,15.4269618 19.5090543,15.0599598 L21.2603622,15.2016097 L21.3118712,15.072837 L19.5541247,14.950503 C19.5283702,12.8837022 18.8265594,11.4028169 18.6527163,11.0615694 Z M11.3577465,8.00965795 L14.6350101,11.5702213 L13.1348089,15.9613682 C12.4136821,16.3348089 9.0527163,16.8241449 8.35090543,16.927163 C7.17263581,15.9742455 5.67243461,13.9460765 5.38269618,13.5404427 C5.51790744,13.0511066 6.47726358,9.67726358 6.93440644,9.10422535 C7.44305835,8.93038229 10.9070423,8.11267606 11.3577465,8.00965795 Z M0.708249497,10.5979879 C0.708249497,10.5979879 0.894969819,8.02897384 2.03460765,6.35492958 L2.03460765,6.36136821 C2.04748491,6.34849095 3.30301811,5.41488934 5.13802817,5.42132797 C5.49215292,7.05030181 6.57384306,8.69215292 6.81851107,9.0527163 C6.34205231,9.69657948 5.4277666,12.9094567 5.2668008,13.4889336 L2.45311871,14.3774648 C0.849899396,12.7935614 0.708249497,10.9971831 0.695372233,10.5979879 L0.708249497,10.5979879 L0.708249497,10.5979879 Z M10.6108652,21.595171 C8.8917505,21.1444668 7.5331992,19.8181087 7.28853119,19.5605634 L8.3444668,17.0366197 C9.0334004,16.9400402 12.4136821,16.4507042 13.1798793,16.0643863 L16.244668,17.8993964 C16.1158954,18.2857143 15.510664,20.0370221 15.195171,20.4619718 C14.0877264,21.0865191 11.1774648,21.5179074 10.6108652,21.595171 Z M14.705835,11.4800805 L11.4414487,7.92595573 C11.6796781,7.3915493 12.2527163,4.59074447 12.3557344,4.08209256 C12.8579477,3.98551308 15.4655936,3.4832998 16.5730382,3.50261569 C16.9400402,3.78591549 18.9746479,5.40201207 19.4897384,6.87645875 L19.4704225,6.87645875 C19.4704225,6.90865191 19.3094567,10.1086519 18.5625755,10.9907445 L14.705835,11.4800805 Z" id="Shape"></path>
                    <path d="M2.1054326,4.50704225 C2.1054326,4.50704225 0.36056338,6.56096579 0.0515090543,10.5979879 L0.135211268,10.5979879 C0.193158954,8.37022133 0.914285714,6.30985915 2.1054326,4.60362173 L2.1054326,4.50704225 Z" id="Shape"></path>
                </g>
                <g id="Group" transform="translate(12.233400, 6.889336)" fill="#212121">
                    <path d="M11.6603622,10.0828974 C11.0229376,11.57666 10.0828974,12.993159 8.84668008,14.2358149 C8.45392354,14.6285714 8.04185111,14.9955734 7.61046278,15.3303823 L8.90462777,16.1030181 C8.77585513,16.489336 8.17062374,18.2406439 7.85513078,18.6655936 C6.74124748,19.2837022 3.83742455,19.7150905 3.26438632,19.7923541 C1.89939638,19.4317907 0.759758551,18.5239437 0.225352113,18.0346076 C0.167404427,18.0346076 0.115895372,18.0346076 0.0579476861,18.0346076 C0.547283702,18.4917505 1.71911469,19.4768612 3.15492958,19.882495 L3.13561368,20.056338 C6.20684105,20.2430584 8.37665996,19.0647887 8.37665996,19.0647887 L7.96458753,18.7042254 C8.31871227,18.1826962 8.94325956,16.3348089 9.02696177,16.0837022 C10.3726358,15.510664 11.872837,13.5983903 12.1496982,13.2313883 L13.901006,13.3730382 L13.9525151,13.2442656 L12.1947686,13.1219316 C12.18833,11.8406439 11.9114688,10.7782696 11.6603622,10.0828974 Z" id="Shape"></path>
                    <path d="M12.1368209,1.9444668 C12.4651911,2.97464789 12.6390342,4.05633803 12.6519115,5.15090543 L14.1006036,5.2668008 C14.1006036,5.2668008 13.1348089,2.11187123 9.98631791,0.0128772636 C10.7782696,0.553722334 11.505835,1.20402414 12.1368209,1.9444668 Z" id="Shape"></path>
                </g>
            </g>
        </g>
    </g>
</svg>