<?xml version="1.0" encoding="UTF-8"?>
<svg width="32px" height="32px" viewBox="0 0 32 32" version="1.1" xmlns="http://www.w3.org/2000/svg" xmlns:xlink="http://www.w3.org/1999/xlink">
    <!-- Generator: Sketch 45.2 (43514) - http://www.bohemiancoding.com/sketch -->
    <title>menu_my_account</title>
    <desc>Created with Sketch.</desc>
    <defs></defs>
    <g id="Page-1" stroke="none" stroke-width="1" fill="none" fill-rule="evenodd">
        <g id="menu_my_account">
            <circle id="Oval-2" cx="16" cy="16" r="16"></circle>
            <g id="flaticon1499312425-svg" fill-rule="nonzero">
                <path d="M31.9713785,15.9857211 C31.9713785,17.3178645 31.8381514,18.5833944 31.5051474,19.7823108 C31.3053068,20.5816096 31.0389163,21.3142948 30.7724622,22.0469801 C30.1063904,23.778741 29.1073147,25.3107251 27.9083347,26.6428685 C27.37549,27.2423267 26.8426454,27.7751713 26.1765737,28.3080159 C26.1099602,28.3080159 26.1099602,28.3746295 26.0433466,28.3746295 C25.843506,28.5744701 25.5771155,28.7076335 25.3772749,28.9074741 C23.1126056,30.5726215 20.3151554,31.6383745 17.3844143,31.9047649 C17.1845737,31.9047649 16.9181833,31.9047649 16.7183426,31.9713785 C16.4518884,31.9713785 16.2521116,31.9713785 15.9856574,31.9713785 C15.7858167,31.9713785 15.5194263,31.9713785 15.2529721,31.9713785 C15.0531315,31.9713785 14.786741,31.9713785 14.5869004,31.9047649 C11.5896096,31.6383108 8.85870916,30.5726215 6.52742629,28.9074741 C6.32758566,28.774247 6.06119522,28.5744701 5.86135458,28.3746295 C5.86135458,28.3746295 5.79474104,28.3080159 5.79474104,28.3080159 C5.19528287,27.7751713 4.5958247,27.2423267 4.06298008,26.6428685 C2.86406375,25.3107251 1.8649243,23.7121275 1.19885259,22.0469801 C0.865848606,21.3142948 0.666007968,20.5816096 0.466167331,19.7823108 C0.199840637,18.5833944 0,17.3178008 0,15.9857211 C0,7.12694821 7.12694821,0 15.9857211,0 C24.844494,0 31.9713785,7.12694821 31.9713785,15.9857211 Z" id="Shape" fill="#36CC64"></path>
                <g id="Group" transform="translate(0.446215, 8.286853)" fill="#40596B">
                    <path d="M13.074996,15.6250518 L13.074996,18.0228845 C9.6780239,19.821259 6.74734661,20.0877131 5.48181673,20.1543267 C5.41520319,20.0877131 5.34858964,20.0210996 5.34858964,20.0210996 C4.74913147,19.488255 4.14967331,18.9554104 3.61682869,18.3559522 C2.41791235,17.0238088 1.41877291,15.4252112 0.752701195,13.7600637 C0.419697211,13.0273785 0.219856574,12.2946932 0.0200159363,11.4953944 L2.08484462,10.2964781 L2.08484462,10.2964781 L2.08484462,10.2964781 C2.08484462,10.2964781 2.75091633,9.63040637 2.75091633,8.96433466 C2.75091633,8.89772112 2.75091633,8.83110757 2.75091633,8.69788048 C2.3512988,8.09842231 1.95161753,7.36573705 1.68522709,6.63305179 C1.61861355,6.63305179 1.61861355,6.63305179 1.552,6.69966534 C1.21899602,6.76627888 0.819314741,6.23343426 0.752701195,5.6339761 C0.686087649,5.10113147 0.819314741,4.56828685 1.08570518,4.43505976 C1.08570518,4.23521912 1.01909163,4.03544223 1.01909163,3.76898805 C1.01909163,1.70415936 2.68423904,0.0390119522 4.74906773,0.0390119522 C6.81389641,0.0390119522 8.47904382,1.70415936 8.47904382,3.76898805 C8.47904382,3.96882869 8.47904382,4.16860558 8.41243028,4.43505976 C8.67888446,4.56828685 8.81204781,5.10113147 8.74543426,5.6339761 C8.67882072,6.30004781 8.27920319,6.76627888 7.94613546,6.69966534 C7.87952191,6.69966534 7.87952191,6.69966534 7.81290837,6.63305179 C7.54645418,7.36573705 7.14683665,8.09842231 6.74721912,8.69788048 L6.74721912,8.69788048 C6.74721912,8.76449402 6.68060558,8.89772112 6.68060558,8.96433466 C6.68060558,9.69701992 7.34667729,10.2964781 7.34667729,10.2964781 L8.87866135,11.1623904 L11.1433307,12.4279203 C11.3431713,12.5611474 11.5429482,12.6943745 11.7427888,12.8275378 C12.6087649,13.5602869 13.074996,14.5593625 13.074996,15.6250518 Z" id="Shape" opacity="0.539999962"></path>
                    <path d="M31.0589323,11.4954582 C30.8590916,12.294757 30.5927012,13.0274422 30.326247,13.7601275 C29.6601753,15.4918884 28.6610996,17.0238725 27.4621195,18.3560159 C26.9292749,18.9554741 26.3964303,19.4883187 25.7303586,20.0211633 C25.663745,20.0211633 25.663745,20.0877769 25.5971315,20.0877769 C24.3316016,20.0211633 21.4008606,19.7547729 18.0039522,17.9563347 L18.0039522,15.558502 C18.0039522,14.4928127 18.4701833,13.4936733 19.2694821,12.8276016 C19.4693227,12.6943745 19.6024861,12.5611474 19.8689402,12.4279841 L22.1336096,11.1624542 L23.6655936,10.2965418 C23.6655936,10.2965418 24.4648924,9.49724303 24.2650518,8.69794422 L24.2650518,8.69794422 C23.8654343,8.09848606 23.465753,7.3658008 23.1993625,6.63311554 C23.1993625,6.63311554 23.132749,6.63311554 23.0661355,6.69972908 C22.7331315,6.76634263 22.3334502,6.23349801 22.2668367,5.63403984 C22.2002231,5.10119522 22.3334502,4.5683506 22.5998406,4.43512351 C22.5998406,4.23528287 22.5332271,4.03550598 22.5332271,3.76905179 C22.5332271,1.70422311 24.1983745,0.0390756972 26.2632032,0.0390756972 C28.3280319,0.0390756972 29.9931793,1.70422311 29.9931793,3.76905179 C29.9931793,3.96889243 29.9931793,4.16866932 29.9265657,4.43512351 C30.1930199,4.5683506 30.3261833,5.10119522 30.2595697,5.63403984 C30.1929562,6.30011155 29.7933386,6.76634263 29.4602709,6.69972908 C29.3936574,6.69972908 29.3936574,6.69972908 29.3270438,6.63311554 C29.0605896,7.3658008 28.6609721,8.09848606 28.2613546,8.69794422 C28.2613546,8.76455777 28.2613546,8.83117131 28.2613546,8.96439841 C28.2613546,9.69708367 28.9274263,10.2965418 28.9274263,10.2965418 L28.9274263,10.2965418 L31.0589323,11.4954582 Z" id="Shape" opacity="0.170000002"></path>
                </g>
                <g id="Group" transform="translate(4.015936, 3.250996)" fill="#F2F2F2">
                    <path d="M15.832988,14.6663267 L15.6331474,20.3279044 L11.9697849,22.7923506 L8.30642231,20.3279044 L8.17319522,14.7329402 C8.17319522,14.7329402 9.37211155,13.6006375 9.03910757,12.4682709 L14.9005259,12.4682709 C14.634008,13.5339602 15.832988,14.6663267 15.832988,14.6663267 Z" id="Shape"></path>
                    <path d="M23.8923984,22.259506 L23.8923984,23.3918088 C23.3595538,23.9912669 22.8267092,24.5241116 22.1606375,25.0569562 C22.0940239,25.0569562 22.0940239,25.1235697 22.0274104,25.1235697 C21.8275697,25.3234104 21.5611793,25.4565737 21.3613386,25.6564143 C19.0966693,27.3215618 16.2992191,28.3873147 13.3684781,28.6537052 C13.1686375,28.6537052 12.902247,28.6537052 12.7024064,28.7203187 C12.4359522,28.7203187 12.2361753,28.7203187 11.9697211,28.7203187 C11.7698805,28.7203187 11.50349,28.7203187 11.2370359,28.7203187 C11.0371952,28.7203187 10.7708048,28.7203187 10.5709641,28.6537052 C7.57367331,28.387251 4.84277291,27.3215618 2.51149004,25.6564143 C2.3116494,25.5231873 2.04525896,25.3234104 1.84541833,25.1235697 C1.84541833,25.1235697 1.77880478,25.0569562 1.77880478,25.0569562 C1.17934661,24.5241116 0.579888446,23.9912669 0.0470438247,23.3918088 L0.0470438247,22.259506 C0.0470438247,20.3945179 1.04611952,18.662757 2.64471713,17.7302311 L5.37561753,16.198247 L8.10651793,14.6662629 L10.5043506,20.4610677 L11.4368765,16.531251 L10.7708048,15.7985657 L13.1686375,15.7985657 L12.5025657,16.531251 L13.4350916,20.4610677 L15.8329243,14.6662629 L15.8329243,14.6662629 L18.5638247,16.198247 L21.2281116,17.7302311 C22.8933227,18.6626932 23.8923984,20.3945179 23.8923984,22.259506 Z" id="Shape"></path>
                    <ellipse id="Oval" transform="translate(7.176340, 7.549669) rotate(-112.420650) translate(-7.176340, -7.549669) " cx="7.17634005" cy="7.5496686" rx="1.33213098" ry="1"></ellipse>
                    <ellipse id="Oval" transform="translate(16.749507, 7.515480) rotate(-157.579350) translate(-16.749507, -7.515480) " cx="16.7495068" cy="7.51548043" rx="1" ry="1.33213098"></ellipse>
                    <path d="M17.2982948,5.34132271 C17.2982948,5.60777689 17.2982948,5.94078088 17.2316813,6.27384861 L17.2316813,6.27384861 C16.8320637,9.40436653 14.634008,14.5330996 11.9697211,14.5330996 C9.30543426,14.5330996 7.10737849,9.47098008 6.70776096,6.27384861 C6.64114741,5.94084462 6.64114741,5.60777689 6.64114741,5.34132271 C6.64114741,2.41064542 9.03898008,0.012749004 11.9697211,0.012749004 C14.9004622,0.012749004 17.2982948,2.41058167 17.2982948,5.34132271 Z" id="Shape"></path>
                    <path d="M17.2982948,5.34132271 C17.2982948,5.60777689 17.2982948,5.94078088 17.2316813,6.27384861 C17.0984542,5.74100398 16.498996,3.87601594 15.8995378,4.6087012 C15.6996972,4.87515538 15.2334661,4.80854183 15.100239,4.4754741 C14.967012,4.14247012 14.9003984,3.74278884 14.9003984,3.34317131 C14.9003984,2.94355378 14.5007809,2.61048606 14.1677131,2.74371315 C13.901259,2.81032669 13.568255,3.07671713 13.3018008,3.54301195 C13.3018008,3.54301195 12.9021833,4.14247012 12.0362709,4.20908367 C11.1703586,4.14247012 10.770741,3.54301195 10.770741,3.54301195 C10.4377371,3.07678088 10.1046693,2.81032669 9.90482869,2.74371315 C9.50521116,2.61048606 9.17214343,2.94355378 9.17214343,3.34317131 C9.17214343,3.74278884 9.10552988,4.14247012 8.97230279,4.4754741 C8.8390757,4.80847809 8.43945817,4.87509163 8.17300398,4.6087012 C7.57354582,3.80940239 6.97408765,5.74100398 6.84086056,6.27384861 C6.77424701,5.94084462 6.77424701,5.60777689 6.77424701,5.34132271 C6.77424701,2.41064542 9.17207968,0.012749004 12.1028207,0.012749004 C14.9004622,0.012749004 17.2982948,2.41058167 17.2982948,5.34132271 Z" id="Shape"></path>
                </g>
            </g>
        </g>
    </g>
</svg>