<?xml version="1.0" encoding="UTF-8"?>
<svg width="30px" height="32px" viewBox="0 0 30 32" version="1.1" xmlns="http://www.w3.org/2000/svg" xmlns:xlink="http://www.w3.org/1999/xlink">
    <!-- Generator: Sketch 45.2 (43514) - http://www.bohemiancoding.com/sketch -->
    <title>menu_predictions</title>
    <desc>Created with Sketch.</desc>
    <defs></defs>
    <g id="Page-1" stroke="none" stroke-width="1" fill="none" fill-rule="evenodd">
        <g id="menu_predictions" fill-rule="nonzero">
            <path d="M24.5085,27.2604375 L4.741625,27.2604375 C2.4433125,27.2604375 0.580125,29.123625 0.580125,31.421875 L28.6699375,31.421875 C28.6699375,29.1235625 26.8068125,27.2604375 24.5085,27.2604375 Z" id="Shape" fill="#664B33"></path>
            <path d="M14.6250625,0.57825 L14.6250625,0.57825 C7.140375,0.57825 1.073,6.64575 1.073,14.1303125 L1.073,14.3014375 C1.073,17.92375 2.49425,21.322375 4.809375,23.8655625 L24.44075,23.8655625 C26.7559375,21.3224375 28.177125,17.92375 28.177125,14.3014375 L28.177125,14.1303125 C28.177125,6.645625 22.109625,0.57825 14.6250625,0.57825 Z" id="Shape" fill="#6087DB"></path>
            <path d="M14.6250625,0.57825 L14.6250625,0.57825 L14.6250625,0.57825 L14.625,23.8655625 L24.44075,23.8655625 C26.7559375,21.3224375 28.177125,17.92375 28.177125,14.3014375 L28.177125,14.1303125 C28.177125,6.645625 22.109625,0.57825 14.6250625,0.57825 Z" id="Shape" fill="#20272E" opacity="0.200000003"></path>
            <g id="Group" transform="translate(14.687500, 3.062500)" fill="#FFFFFF">
                <path d="M8.4903125,18.28625 C8.359625,18.28625 8.22825,18.24225 8.12,18.151875 C7.8748125,17.94725 7.8420625,17.582625 8.0466875,17.3374375 C10.1680625,14.79625 10.884625,11.2400625 9.9166875,8.0565 C9.8238125,7.7509375 9.9961875,7.428 10.3016875,7.335125 C10.607,7.24225 10.930125,7.414625 11.0230625,7.720125 C12.103,11.2724375 11.30275,15.2415625 8.9344375,18.0785625 C8.8201875,18.2155625 8.6558125,18.28625 8.4903125,18.28625 Z" id="Shape"></path>
                <path d="M9.198375,5.781375 C9.0085625,5.781375 8.822625,5.688 8.712,5.516625 C7.833125,4.1545625 6.529625,3.0226875 4.8379375,2.152625 C4.5539375,2.0065 4.442125,1.658 4.58825,1.3739375 C4.7344375,1.0899375 5.083125,0.9781875 5.367,1.12425 C7.2413125,2.08825 8.693625,3.355125 9.68375,4.889625 C9.8569375,5.158 9.77975,5.515875 9.5114375,5.6889375 C9.414375,5.7514375 9.30575,5.781375 9.198375,5.781375 Z" id="Shape"></path>
                <path d="M2.9635625,1.456125 C2.92,1.456125 2.87575,1.4511875 2.8315,1.440875 C2.115875,1.27375 1.37725,1.189 0.6359375,1.189 C0.3165,1.189 0.0576875,0.930125 0.0576875,0.61075 C0.0576875,0.291375 0.3165,0.0325 0.6359375,0.0325 C1.4655625,0.0325 2.29275,0.127375 3.0945625,0.3146875 C3.4055,0.3873125 3.5986875,0.6983125 3.526125,1.00925 C3.46375,1.276 3.2260625,1.456125 2.9635625,1.456125 Z" id="Shape"></path>
            </g>
            <rect id="Rectangle-path" fill="#4D3926" x="4.7418125" y="23.8651875" width="19.76675" height="3.3945625"></rect>
            <g id="Group" fill="#20272E">
                <path d="M14.6250625,31.421875 L28.6699375,31.421875 C28.6699375,29.1235625 26.8068125,27.2604375 24.5085,27.2604375 L14.6250625,27.2604375 L14.6250625,31.421875 Z" id="Shape" opacity="0.3"></path>
                <rect id="Rectangle-path" opacity="0.3" x="4.7418125" y="23.8651875" width="9.88375" height="3.3945625"></rect>
                <path d="M25.0866875,26.7186875 L25.0866875,24.009375 C27.454875,21.2929375 28.7553125,17.858625 28.7553125,14.3015 L28.7553125,14.1304375 C28.7553125,6.338875 22.4165,0 14.6250625,0 C6.833625,0 0.49475,6.338875 0.49475,14.1303125 L0.49475,14.301375 C0.49475,17.858625 1.7951875,21.292875 4.163375,24.00925 L4.163375,26.7185625 C1.8218125,27.0048125 0.001875,29.0041875 0.001875,31.42175 C0.001875,31.7411875 0.26075,32 0.580125,32 L28.6699375,32 C28.98925,32 29.2481875,31.7411875 29.2481875,31.42175 C29.248125,29.0041875 27.42825,27.0049375 25.0866875,26.7186875 Z M1.6511875,14.301375 L1.6511875,14.1303125 C1.6511875,6.9764375 7.47125,1.1564375 14.6250625,1.1564375 C21.778875,1.1564375 27.5989375,6.9764375 27.5989375,14.1303125 L27.5989375,14.301375 C27.5989375,17.594625 26.3873125,20.7756875 24.18225,23.28725 L5.067875,23.28725 C2.8628125,20.7756875 1.6511875,17.594625 1.6511875,14.301375 Z M23.93025,24.4438125 L23.93025,26.682125 L5.3198125,26.682125 L5.3198125,24.4438125 L23.93025,24.4438125 Z M1.2049375,30.8435625 C1.48225,29.14175 2.9625625,27.8385 4.7415625,27.8385 L24.5084375,27.8385 C26.2874375,27.8385 27.76775,29.1416875 28.0450625,30.8435625 L1.2049375,30.8435625 Z" id="Shape"></path>
            </g>
        </g>
    </g>
</svg>